<svg id="Ebene_1" data-name="Ebene 1" xmlns="http://www.w3.org/2000/svg" viewBox="0 0 826 467"><defs><style>.cls-1,.cls-12,.cls-14,.cls-7,.cls-9{fill:#fff;}.cls-1{stroke:#000;}.cls-1,.cls-13,.cls-14,.cls-17,.cls-18,.cls-5,.cls-9{stroke-miterlimit:10;}.cls-2,.cls-3,.cls-4,.cls-6{isolation:isolate;}.cls-2,.cls-6{font-size:24px;}.cls-13,.cls-15,.cls-2,.cls-6,.cls-8{fill:#1d1d1b;}.cls-2,.cls-4,.cls-6{font-family:Ebrima-Bold, Ebrima;font-weight:700;}.cls-2{letter-spacing:0.03em;}.cls-4{font-size:20px;fill:#063;letter-spacing:0.01em;}.cls-16,.cls-17,.cls-5{fill:none;}.cls-5{stroke:#063;stroke-width:2px;}.cls-13,.cls-14,.cls-15,.cls-16,.cls-17,.cls-18,.cls-9{stroke:#1d1d1b;}.cls-18,.cls-9{stroke-width:0.1px;}.cls-10{fill:#fbf7d1;}.cls-11{fill:#312783;}.cls-12{stroke:#fff;}.cls-12,.cls-16{stroke-linejoin:round;}.cls-12,.cls-13,.cls-14,.cls-15,.cls-16,.cls-17{stroke-width:0.25px;}.cls-14{stroke-linecap:round;}.cls-15{stroke-linejoin:bevel;}.cls-18{fill:#be1622;}</style></defs><title>Zeichenfläche 1</title><rect class="cls-1" x="-6.36" y="-5" width="843.36" height="481"/><text class="cls-2" transform="translate(107.5 84.42)">WERTEHALTUNG</text><text class="cls-2" transform="translate(489.52 84.18)">INNERE ORGANISATION</text><text class="cls-2" transform="translate(66.85 301.82)">MENTALE FÄHIGKEITEN</text><text class="cls-2" transform="translate(503.14 301.82)">VERHALTEN/PRÄSENZ</text><g class="cls-3"><text class="cls-4" transform="translate(71.01 114.49)"><tspan xml:space="preserve">  ehrlich, Naturverbunden, </tspan></text><text class="cls-4" transform="translate(94.58 138.49)">experimentierfreudig</text></g><g class="cls-3"><text class="cls-4" transform="translate(35.43 341.96)">einfache Ausdrucksweise, logische </text><text class="cls-4" transform="translate(148.49 365.96)">Denkweise</text></g><g class="cls-3"><text class="cls-4" transform="translate(480.78 344.68)">lässt Experimentellenfreiraum, </text><text class="cls-4" transform="translate(526.14 368.68)">keine „unsichtbaren“ </text><text class="cls-4" transform="translate(545.45 392.68)">Einschränkungen</text></g><line class="cls-5" x1="-6.36" y1="225.34" x2="832.6" y2="225.34"/><line class="cls-5" x1="419.93" y1="51.03" x2="419.93" y2="469.4"/><text class="cls-6" transform="translate(308.98 24.45)">App - junger Biologe</text><rect class="cls-7" x="354" y="82.74" width="121.43" height="247.15"/><ellipse class="cls-8" cx="417.35" cy="107.32" rx="20.35" ry="13.16"/><path class="cls-8" d="M397,108.44s1.77,20.55,22.81,19.84c0,0,15.22,1.18,17.88-17.66,0-.12-.5-2.66-.21-2.66"/><path class="cls-9" d="M398.59,127.12a284.86,284.86,0,0,1-.06,28.93l-5.44,9.47L394,151s-10.61,29.43-12,40.54c0,0-2.6,19.77-2.13,28.24H367.44s3.15-70.75,17-84.34C384.4,135.44,392.13,129.23,398.59,127.12Z"/><path class="cls-9" d="M437.15,127.18s3.61,7.61,5.31,23.22l1.35,15.75,4.11-6.8s2,4.15,3.51,16.26c.89,7.32,2.49,13.9,2.23,21.27-.15,4.33,1,8.93.77,13l11.65-1.17s-.55-34.22-4.29-55.59a30.32,30.32,0,0,0-3.1-9.11C455.59,138.23,447.65,129.22,437.15,127.18Z"/><path class="cls-10" d="M365.79,208.69c2.37,0,6.85,1,10.59,1.65a6.06,6.06,0,0,1,5,5.45c.45,5.36,1.07,13.37.76,14.5-.46,1.74-3.45-.22-3.45-.22v1.43c.08,4-3.7,7.22-7.45,6a4.33,4.33,0,0,1-2.26-1.64C366.29,232,365.79,208.69,365.79,208.69Z"/><path class="cls-10" d="M467.21,206c-2.37,0-6.85,1-10.59,1.64a6.06,6.06,0,0,0-5,5.45c-.45,5.37-1.07,13.38-.76,14.51.46,1.74,3.45-.22,3.45-.22v1.43c-.08,4,3.7,7.22,7.45,6a4.36,4.36,0,0,0,2.26-1.63C466.71,229.3,467.21,206,467.21,206Z"/><path class="cls-11" d="M445.62,205.52s-1.79,35-3.67,47.47-4,56.55-4,56.55l9.95.21s13.82,11.69-.7,11.75-26.23-.29-26.23-.29,2.69-60.52-8.17-91.3c0,0-7.2,16.73-10.44,47.68l-3.23,30.94,9.65.44s12.34,12.55-3.41,12.54H382.82l-1.76-83a7.11,7.11,0,0,0,1.5-5.51s8.06-.34,2.68-6.37V208.47"/><path class="cls-12" d="M414.77,116.69h7s3.82,3.7,5.64,5.38,6.56-7.74,6.59-9.62v-3.14l-32.66.32s1.75,10.67,7,12.61c0,0,3.54-3.22,2.05-2Z"/><circle class="cls-13" cx="427.23" cy="112.76" r="2.03"/><circle class="cls-13" cx="409.05" cy="112.96" r="2.03"/><path class="cls-12" d="M415.47,118.58H421l4.52,4.5s-8.66,2.32-14.74-.15Z"/><path class="cls-14" d="M413.24,121.79c2.58,1.82,8,1.34,9.88.3"/><path class="cls-15" d="M381.48,301.76l17.09.38a2.26,2.26,0,0,1,2.22,2.3,1,1,0,0,1,0,.17l-.14,1.44a2.26,2.26,0,0,0,2,2.46h.13l7.12.28a2.27,2.27,0,0,1,1.48.62c2.71,2.63,12.73,13.14-1.12,13.27-15.83.16-30.4,0-30.4,0"/><path class="cls-15" d="M421,301.76l17.09.38a2.26,2.26,0,0,1,2.22,2.3,1,1,0,0,1,0,.17l-.14,1.44a2.26,2.26,0,0,0,2,2.46h.12l7.13.28a2.25,2.25,0,0,1,1.47.62c2.72,2.63,12.73,13.14-1.11,13.27-15.83.16-30.4,0-30.4,0"/><circle class="cls-16" cx="409.05" cy="113.13" r="3.47"/><circle class="cls-16" cx="427.23" cy="112.96" r="3.47"/><circle class="cls-12" cx="408.13" cy="114.16" r="0.93"/><circle class="cls-12" cx="426.13" cy="113.69" r="0.93"/><path class="cls-16" d="M412.52,113s6.27-1.58,11,0"/><path class="cls-16" d="M430.7,113s3.73-2.43,5.05-2"/><path class="cls-16" d="M405.4,113s-3.73-2.43-5-2"/><path class="cls-9" d="M400.68,127.12h4.59c3.46,10.65,21.78,8.91,28.19,2,1.35-1.44,3.18-.21,3.61,2.27,5.35,30.75,10.44,101.68,11.54,125.7l-69.35,2.57c1.9-32.82,2.33-44.06,5.57-53.52,1.47-4.3,3.3-14.57,3.3-14.57,1.12-8.94,3.27-18.87,5.47-23C396.17,163.8,404.58,159.78,400.68,127.12Z"/><path class="cls-17" d="M402.5,127.18s7.08,11.32,2.06,16.88l8,.79-4.45,4.85,11.46,11.05,10.81-11.6L426.11,144l7.24-.07s-3.32-9.75,2-15"/><path class="cls-18" d="M409.42,132.72l9.65,21,9.27-21A22.14,22.14,0,0,1,409.42,132.72Z"/><circle class="cls-13" cx="418.92" cy="175.74" r="2.29"/><circle class="cls-13" cx="418.88" cy="187.37" r="2.29"/><circle class="cls-13" cx="418.88" cy="197.59" r="2.29"/><g class="cls-3"><text class="cls-4" transform="translate(476.73 116.4)">aufgeräumt, organiesiert, offen, </text><text class="cls-4" transform="translate(550.36 140.4)">anpassungsfähig</text></g></svg>