<svg id="Ebene_1" data-name="Ebene 1" xmlns="http://www.w3.org/2000/svg" viewBox="0 0 826 467"><defs><style>.cls-1,.cls-5{fill:#fff;}.cls-1,.cls-10,.cls-7,.cls-8{stroke:#000;}.cls-1,.cls-10,.cls-12,.cls-13,.cls-3,.cls-7,.cls-8{stroke-miterlimit:10;}.cls-15,.cls-16,.cls-2,.cls-4{isolation:isolate;}.cls-2,.cls-4{font-size:24px;fill:#1d1d1b;}.cls-15,.cls-2,.cls-4{font-family:Ebrima-Bold, Ebrima;font-weight:700;}.cls-2{letter-spacing:0.03em;}.cls-13,.cls-3{fill:none;}.cls-3{stroke:#063;stroke-width:2px;}.cls-12,.cls-14,.cls-6{fill:#161615;}.cls-7{fill:#9d1915;}.cls-10,.cls-12,.cls-14,.cls-7,.cls-8{stroke-width:0.25px;}.cls-8{fill:#4f3a28;}.cls-9{fill:#ffefd1;}.cls-11{fill:#363636;}.cls-12,.cls-13,.cls-14{stroke:#161615;}.cls-13{stroke-linecap:round;stroke-width:0.8px;}.cls-14{stroke-linejoin:bevel;}.cls-15{font-size:20px;fill:#063;letter-spacing:0.01em;}</style></defs><title>Bauer</title><rect class="cls-1" x="-46.34" y="-26.68" width="944.34" height="534.68"/><text class="cls-2" transform="translate(116.28 84.37)">WERTEHALTUNG</text><text class="cls-2" transform="translate(489.92 84.37)">INNERE ORGANISATION</text><text class="cls-2" transform="translate(501.24 301.82)">VERHALTEN/PRÄSENZ</text><line class="cls-3" x1="-6.36" y1="225.34" x2="832.6" y2="225.34"/><line class="cls-3" x1="419.93" y1="47.28" x2="419.93" y2="469.4"/><text class="cls-4" transform="translate(323.33 24.69)">Helfer - alter Bauer</text><rect class="cls-5" x="351.04" y="110.07" width="144.11" height="232.74"/><g id="Bauer"><g id="Zeichnen"><path id="Pfad_261" data-name="Pfad 261" class="cls-6" d="M453.2,145.71s-1.45,17.31-18.53,16.72c0,0-12.35,1-14.52-14.89,0-.1.41-2.24.18-2.24"/><path id="Pfad_262" data-name="Pfad 262" class="cls-7" d="M453,162a33.39,33.39,0,0,0-5.91,20.58l7.34,9-.7-10.79s8.6,23.86,9.74,32.87c0,0,2.1,16,1.72,22.89h10.1s-2.56-57.35-13.75-68.38A19.36,19.36,0,0,0,453,162Z"/><path id="Pfad_263" data-name="Pfad 263" class="cls-6" d="M474.22,239.87h-8.59s-2.7,3.84-2.32,5.24,2.8-.18,2.8-.18l-.11,5.33s5.72,2.5,7.95-.65S474.22,239.87,474.22,239.87Z"/><path id="Pfad_264" data-name="Pfad 264" class="cls-7" d="M450.21,161.49h-3.56s-3.07,3.94-10.5,3.94c-10.76,0-13-5.5-13-5.5-.58-1-1.71,4.52-2.13,7-.56,3.44-1.39,15.15-1.39,15.15l24.82.29,1.25-9.63S447.6,163.63,450.21,161.49Z"/><path id="Pfad_265" data-name="Pfad 265" class="cls-7" d="M420.15,160.52s-7.54,7.48-8.75,15.4a81.33,81.33,0,0,0-1,11.13s3.46-5.09,6.33-5.6c0,0,1.45-18.72,3.28-20.73"/><path id="Pfad_267" data-name="Pfad 267" class="cls-8" d="M452.36,146.28l-31.43-.3s-15.57-1.34-19-4.43,19.82-3.9,19.82-3.9,2.38-16.77,4.53-17.2h20.24s4.86,4.52,5.86,17.52c0,0,23.58,1,22.15,4.05S452.36,146.28,452.36,146.28Z"/><path id="Pfad_268" data-name="Pfad 268" class="cls-9" d="M438.69,153H433s-3.1,3-4.57,4.36-5.32-6.27-5.34-7.8V147l26.47.26s-1.41,8.65-5.7,10.23c0,0-2.87-2.62-1.66-1.63Z"/><path id="Pfad_269" data-name="Pfad 269" class="cls-7" d="M407.89,185l-5,11.62H380.34v11.11h28.05Z"/><path id="Pfad_270" data-name="Pfad 270" class="cls-10" d="M444.58,184.13H416.17l-6.41,7.34s3.53,61.79,5.1,71.93,3.33,46,3.33,46l-8.29.17s-11.53,9.5.58,9.55,21.86-.24,21.86-.24-2.24-49.19,6.81-74.21c0,0,6,13.6,8.7,38.75l2.7,25.16-8,.36s-10.29,10.2,2.83,10.19h18.8l1.66-67.48a7,7,0,0,1-1.38-4.93s-6,.09-1.55-4.8c0,0-.76-38-5-43S444.58,184.13,444.58,184.13Z"/><circle id="Ellipse_84" data-name="Ellipse 84" class="cls-6" cx="442.78" cy="195.06" r="2.64"/><path id="Pfad_277" data-name="Pfad 277" class="cls-6" d="M418.82,192.41a2.65,2.65,0,1,1-2.65,2.65h0A2.65,2.65,0,0,1,418.82,192.41Z"/><path id="Pfad_271" data-name="Pfad 271" d="M378.42,197.79v8.33H367.75s-2.67-5.57.33-7.14h1.33l.29-10H368V181.4h8v7.29h-1.76v7.38s.76,1.25,4.08,2.05"/><path id="Pfad_272" data-name="Pfad 272" class="cls-11" d="M382.61,180.12h-21.1s-5-.19-5-6.53V148.68s1.86-2.63,3.29,0v27.48s3.34,2,5.34-.38V148.49a2.14,2.14,0,0,1,2.95-.67h.05a2.38,2.38,0,0,1,.66.68v26.82a10.48,10.48,0,0,0,0,2.24s3.43.95,5.71-.05l.2-28.58a1.81,1.81,0,0,1,2.49-.61h0a2,2,0,0,1,.61.61V177.3s3.76.62,6.23-1.14V149.72s1.57-2.76,2.95-.14v27.2A4.7,4.7,0,0,1,382.61,180.12Z"/><path id="Pfad_276" data-name="Pfad 276" d="M374.73,206.82H369V318.64h5.72Z"/><circle id="Ellipse_86" data-name="Ellipse 86" class="cls-12" cx="428.26" cy="149.5" r="1.64"/><circle id="Ellipse_87" data-name="Ellipse 87" class="cls-12" cx="444.17" cy="149.85" r="1.64"/><path id="Pfad_273" data-name="Pfad 273" class="cls-9" d="M438.18,154.57h-4.5L430,158.21s7,1.89,11.95-.11Z"/><path id="Pfad_274" data-name="Pfad 274" class="cls-13" d="M438.94,157.05a9.52,9.52,0,0,1-6.06,0"/></g><path id="Pfad_285" data-name="Pfad 285" class="cls-14" d="M412.38,272.64h22.24L432.78,320s-15,.13-22.45,0-9.27-7.34-.84-11.13c0,0,6.94-.37,8.36-.37S412.38,272.64,412.38,272.64Z"/><path id="Pfad_286" data-name="Pfad 286" class="cls-14" d="M445.21,272.64h22.25L465.61,320s-15,.13-22.44,0-9.27-7.34-.84-11.13c0,0,6.93-.37,8.36-.37S445.21,272.64,445.21,272.64Z"/></g><text class="cls-15" transform="translate(41.68 344.68)">einfache Ausdrucksweise, einfache</text><text class="cls-15" transform="translate(70.41 368.68)">Denkweise, einfach gestrickt</text><text class="cls-2" transform="translate(75.63 301.82)">MENTALE FÄHIGKEITEN</text><text class="cls-15" transform="translate(473.6 344.68)">nicht immer erreichbar, gibt sein</text><text class="cls-15" transform="translate(459.27 368.68)">Kommentar ab, gibt Hinweise wenn</text><text class="cls-15" transform="translate(583.42 392.68)">angefragt</text><text class="cls-15" transform="translate(468.36 116.44)">aufgeräumt, organiesiert, mit sich</text><text class="cls-15" transform="translate(546.66 140.44)">selbst beschäftigt</text><g class="cls-16"><text class="cls-15" transform="translate(93.85 115.36)"><tspan xml:space="preserve">  ehrlich, Naturverbunden, </tspan></text></g><text class="cls-15" transform="translate(91.65 139.36)">konservativ, leicht ironisch</text></svg>