<svg id="Ebene_1" data-name="Ebene 1" xmlns="http://www.w3.org/2000/svg" viewBox="0 0 225.19 115.51"><defs><style>.cls-1{fill:#5590e6;}.cls-2{fill:#eaeaf0;}.cls-3{fill:#c1c1c5;}.cls-4{fill:#4575bb;}</style></defs><title>CreditIcons2</title><g id="Bildmaterial_3" data-name="Bildmaterial 3"><g id="sickle"><path id="Pfad_228" data-name="Pfad 228" class="cls-1" d="M162.2,101a8.62,8.62,0,0,0,12.2,0l.26-.27,14.86-16.2L178.67,73.69l-16,14.72A8.59,8.59,0,0,0,162.2,101Z" transform="translate(-25.1 -12.76)"/><path id="Pfad_229" data-name="Pfad 229" class="cls-2" d="M194.36,22.82a34.33,34.33,0,0,0-4.46,43.06l-7.53,7.54L190,81l11.26-11.26a30.63,30.63,0,0,1,48.39-36.61c.23.23.45.46.67.7a34.32,34.32,0,0,0-55.92-11Z" transform="translate(-25.1 -12.76)"/><path id="Pfad_230" data-name="Pfad 230" class="cls-3" d="M200.25,25.29a1.38,1.38,0,0,1-1.39-1.38,1.44,1.44,0,0,1,.52-1.09,30.63,30.63,0,0,1,11.44-5.7,1.39,1.39,0,0,1,.7,2.68A27.57,27.57,0,0,0,201.11,25,1.43,1.43,0,0,1,200.25,25.29Z" transform="translate(-25.1 -12.76)"/><path id="Pfad_231" data-name="Pfad 231" class="cls-4" d="M191.05,87.53l-15.2-15.2,3.43-3.42,15.2,15.2Z" transform="translate(-25.1 -12.76)"/></g><g id="watering-can"><path id="Pfad_355" data-name="Pfad 355" class="cls-4" d="M104.57,82.55,68.18,76.67l4-15,34.53,12.93Z" transform="translate(-25.1 -12.76)"/><path id="Pfad_356" data-name="Pfad 356" class="cls-1" d="M114.64,72.62l-4.15,15.7-4.11-1.09a8.12,8.12,0,0,1,4.16-15.7l4.1,1.09Z" transform="translate(-25.1 -12.76)"/><path id="Pfad_357" data-name="Pfad 357" class="cls-2" d="M109.77,92.61a1.71,1.71,0,0,1-1.71-1.69,1.63,1.63,0,0,1,.06-.45l5.57-21a1.71,1.71,0,0,1,3.3.87h0l-5.58,21A1.7,1.7,0,0,1,109.77,92.61Z" transform="translate(-25.1 -12.76)"/><path id="Pfad_358" data-name="Pfad 358" class="cls-2" d="M75,27.76l-4.5,3.72-6.6-8A3.7,3.7,0,0,0,58.68,23l0,0-9.09,7.53a3.7,3.7,0,0,0-.5,5.22h0l6.6,8-4.5,3.72-6.6-8a9.54,9.54,0,0,1,1.25-13.43l0,0,9.09-7.52a9.55,9.55,0,0,1,13.45,1.25h0Z" transform="translate(-25.1 -12.76)"/><path id="Pfad_359" data-name="Pfad 359" class="cls-1" d="M91.7,47.94,72.34,24.55,30.49,51.41l-2.71,2.24,32.4,39.14,2.71-2.24L91.28,60.61A9.57,9.57,0,0,0,91.7,47.94Z" transform="translate(-25.1 -12.76)"/><path id="Pfad_360" data-name="Pfad 360" class="cls-4" d="M75,71a1.7,1.7,0,0,1-1.24-2.87L81,60.47a1.7,1.7,0,0,1,2.47,2.35l-7.25,7.65A1.72,1.72,0,0,1,75,71Z" transform="translate(-25.1 -12.76)"/><path id="Pfad_361" data-name="Pfad 361" class="cls-2" d="M30.51,51.43,62.93,90.56l-5.42,4.49L25.1,55.92Z" transform="translate(-25.1 -12.76)"/><g id="Gruppe_358" data-name="Gruppe 358"><path id="Pfad_362" data-name="Pfad 362" class="cls-1" d="M130.46,92.44a2.92,2.92,0,0,1-5.84,0c0-1.62,2.92-5.4,2.92-5.4S130.46,90.82,130.46,92.44Z" transform="translate(-25.1 -12.76)"/><path id="Pfad_363" data-name="Pfad 363" class="cls-1" d="M120.61,108.71a3.41,3.41,0,0,1-6.82,0c0-1.88,3.41-6.29,3.41-6.29S120.61,106.82,120.61,108.71Z" transform="translate(-25.1 -12.76)"/><path id="Pfad_364" data-name="Pfad 364" class="cls-1" d="M137,124.38a3.9,3.9,0,0,1-7.79,0c0-2.15,3.9-7.19,3.9-7.19S137,122.23,137,124.38Z" transform="translate(-25.1 -12.76)"/></g></g></g></svg>