<svg id="Ebene_1" data-name="Ebene 1" xmlns="http://www.w3.org/2000/svg" viewBox="0 0 954.76 117.82"><defs><style>.cls-1{fill:#ffe278;}.cls-2{fill:#ffd845;}.cls-3{fill:#fffbf4;}.cls-4{fill:#6ba7ff;}.cls-5{fill:#f9f4c8;}.cls-6{fill:#556e82;}.cls-7{fill:#3c4655;}.cls-8{fill:#93c6ec;}.cls-9{fill:#b3b3b3;}.cls-10{fill:#999;}.cls-11{fill:#d9d9d9;}.cls-12{fill:#c86d5c;}.cls-13{fill:#b24d40;}.cls-14{fill:#3b484a;}.cls-15{fill:#bc8c76;}.cls-16{fill:#dcb596;}.cls-17{fill:#ede4dc;}.cls-18{fill:#8f4b00;}.cls-19{fill:#d37300;}.cls-20{fill:#b8cfd6;}.cls-21{fill:#ebf6fa;}.cls-22{fill:#859da6;}.cls-23{fill:#cfa05f;}.cls-24{fill:#facc8c;}.cls-25{fill:sienna;}.cls-26{fill:#783e22;}.cls-27{fill:#a4c400;}.cls-28{fill:#90ac00;}.cls-29{fill:#60a917;}.cls-30{fill:#549414;}.cls-31{fill:#f5f5f5;}.cls-32{fill:#ff405c;}.cls-33{fill:#e20059;}.cls-34{fill:#c8ffff;}.cls-35{fill:#45f6ff;}.cls-36{fill:#a34f3e;}.cls-37{fill:#873f2e;}.cls-38{fill:#fff2de;}.cls-39{fill:#fcd1a6;}.cls-40{fill:#ff8b8b;}.cls-41{fill:#ff3d7d;}.cls-42{fill:#fde4c3;}.cls-43{fill:#a66d30;}.cls-43,.cls-44,.cls-45,.cls-46,.cls-47,.cls-48{fill-rule:evenodd;}.cls-44{fill:#f5df87;}.cls-45{fill:#d9a13f;}.cls-46{fill:#6e3e0b;}.cls-47{fill:#8fde56;}.cls-48{fill:#47a831;}.cls-49{fill:#178035;}</style></defs><title>CreditIcons1</title><g id="Bildmaterial_2" data-name="Bildmaterial 2"><g id="files-and-folders"><path id="Pfad_329" data-name="Pfad 329" class="cls-1" d="M968.23,110H912.77a2.77,2.77,0,0,1-2.77-2.78V32.78A2.77,2.77,0,0,1,912.77,30h55.47A2.77,2.77,0,0,1,971,32.76v74.46A2.77,2.77,0,0,1,968.23,110Z" transform="translate(-16.81 -7.29)"/><path id="Pfad_330" data-name="Pfad 330" class="cls-2" d="M971,107.24V32.76A2.77,2.77,0,0,0,968.24,30H935v80h33.24A2.77,2.77,0,0,0,971,107.24Z" transform="translate(-16.81 -7.29)"/><path id="Pfad_331" data-name="Pfad 331" class="cls-3" d="M971.2,122H908.38a7.55,7.55,0,0,1-6.89-10.57,7.25,7.25,0,0,1,6.77-4.43H971.2A10.61,10.61,0,0,0,971.2,122Z" transform="translate(-16.81 -7.29)"/><path id="Pfad_332" data-name="Pfad 332" class="cls-4" d="M909.27,30A10.24,10.24,0,0,0,899,40.19v74.44a2.8,2.8,0,0,0,5.6,0,4.65,4.65,0,0,1,4.67-4.63H913V30Z" transform="translate(-16.81 -7.29)"/><path id="Pfad_333" data-name="Pfad 333" class="cls-3" d="M957.24,70H923.76A2.77,2.77,0,0,1,921,67.24V44.76A2.77,2.77,0,0,1,923.76,42h33.48A2.77,2.77,0,0,1,960,44.76V67.24A2.77,2.77,0,0,1,957.24,70Z" transform="translate(-16.81 -7.29)"/><path id="Pfad_334" data-name="Pfad 334" class="cls-5" d="M935,122h36.56a10.61,10.61,0,0,1,0-15H935Z" transform="translate(-16.81 -7.29)"/><path id="Pfad_335" data-name="Pfad 335" class="cls-5" d="M957.24,42H935V70h22.24A2.77,2.77,0,0,0,960,67.24V44.76A2.77,2.77,0,0,0,957.24,42Z" transform="translate(-16.81 -7.29)"/><path id="Pfad_336" data-name="Pfad 336" class="cls-6" d="M946.19,59h-12a3,3,0,0,1-.12-6h12.12a3,3,0,0,1,0,6Z" transform="translate(-16.81 -7.29)"/><path id="Pfad_337" data-name="Pfad 337" class="cls-7" d="M947,59a3,3,0,0,0,0-6H935v6Z" transform="translate(-16.81 -7.29)"/><path id="Pfad_338" data-name="Pfad 338" class="cls-6" d="M956.75,88H923.61a3,3,0,0,1-.1-6h33.24a3,3,0,0,1,.11,6Z" transform="translate(-16.81 -7.29)"/><path id="Pfad_339" data-name="Pfad 339" class="cls-6" d="M956.75,99H923.61a3,3,0,0,1-.1-6h33.24a3,3,0,0,1,0,6Z" transform="translate(-16.81 -7.29)"/><path id="Pfad_340" data-name="Pfad 340" class="cls-7" d="M959,82H935v6h24a3,3,0,1,0,.11-6Z" transform="translate(-16.81 -7.29)"/><path id="Pfad_341" data-name="Pfad 341" class="cls-7" d="M959,93H935v6h24a3,3,0,0,0,0-6Z" transform="translate(-16.81 -7.29)"/><path id="Pfad_342" data-name="Pfad 342" class="cls-8" d="M967.8,125H909a10.34,10.34,0,0,1-9.9-7.06,10.54,10.54,0,0,1,10-13.94h58.61a3,3,0,0,1,.11,6H909.72a4.65,4.65,0,0,0-4.71,4.1,4.5,4.5,0,0,0,4.48,4.9h58.44a2.5,2.5,0,1,1,.1,5h-.23Z" transform="translate(-16.81 -7.29)"/><g id="Gruppe_356" data-name="Gruppe 356"><path id="Pfad_343" data-name="Pfad 343" class="cls-4" d="M935,104v6h33.14a3,3,0,0,0,.1-6H935Z" transform="translate(-16.81 -7.29)"/><path id="Pfad_344" data-name="Pfad 344" class="cls-4" d="M970.9,122a2.89,2.89,0,0,0-2.76-3H935v6h33.14A2.89,2.89,0,0,0,970.9,122Z" transform="translate(-16.81 -7.29)"/></g></g><g id="shovel"><path id="Pfad_345" data-name="Pfad 345" class="cls-9" d="M871.5,20.36c-13.3-13.3-46.25,9-66.84,29.62a11.35,11.35,0,0,0-.48,15.2,19.12,19.12,0,0,1,4.46,10.2l7.83,7.83a19.21,19.21,0,0,1,10.2,4.46,11.34,11.34,0,0,0,15.21-.48C862.5,66.6,884.79,33.65,871.5,20.36Z" transform="translate(-16.81 -7.29)"/><path id="Pfad_346" data-name="Pfad 346" class="cls-10" d="M871.5,20.36A13,13,0,0,0,870,19c6,16.81-15.7,47.85-35.94,68.05a11.77,11.77,0,0,1-3.85,2.57,11.13,11.13,0,0,0,11.71-2.47C862.5,66.6,884.79,33.65,871.5,20.36Z" transform="translate(-16.81 -7.29)"/><path id="Pfad_347" data-name="Pfad 347" class="cls-11" d="M820.91,77.83a4.91,4.91,0,0,0,1.1-2.35h0a4.9,4.9,0,0,0-4-5.64,5.08,5.08,0,0,0-1.65,0h0a4.91,4.91,0,0,0-2.35,1.1L799.77,82.7l2.46,6.91,6.92,2.46Z" transform="translate(-16.81 -7.29)"/><path id="Pfad_348" data-name="Pfad 348" class="cls-12" d="M804.37,91.12l-9-4s-8.12,5-20.27,16.12a9.58,9.58,0,0,0-.59,13.54l.28.3h0a9.58,9.58,0,0,0,13.55,0l.29-.3c11.16-12.16,16.12-20.27,16.12-20.27Zm-18.16,19.73a3.68,3.68,0,1,1,0-5.21h0A3.68,3.68,0,0,1,786.21,110.85Z" transform="translate(-16.81 -7.29)"/><path id="Pfad_349" data-name="Pfad 349" class="cls-13" d="M788.58,116.8c11.16-12.15,16.12-20.27,16.12-20.27l-.34-5.41-2.84-1.25.23,3.71s-5,8.12-16.11,20.27a9.57,9.57,0,0,1-12.2,1.62,9.34,9.34,0,0,0,1.31,1.64h0a9.58,9.58,0,0,0,13.55,0A3.83,3.83,0,0,0,788.58,116.8Z" transform="translate(-16.81 -7.29)"/><g id="Gruppe_357" data-name="Gruppe 357"><path id="Pfad_350" data-name="Pfad 350" class="cls-14" d="M830,42.42a1.56,1.56,0,0,1-1.57-1.56,1.59,1.59,0,0,1,.46-1.11l1.9-1.9A1.56,1.56,0,0,1,833,40.06l-1.9,1.9A1.53,1.53,0,0,1,830,42.42Z" transform="translate(-16.81 -7.29)"/><path id="Pfad_351" data-name="Pfad 351" class="cls-14" d="M851,63.46a1.56,1.56,0,0,1-1.1-2.67l1.9-1.9A1.56,1.56,0,0,1,854,61.1L852.1,63A1.57,1.57,0,0,1,851,63.46Z" transform="translate(-16.81 -7.29)"/><path id="Pfad_352" data-name="Pfad 352" class="cls-14" d="M842.9,55.41a6.53,6.53,0,0,1-6.46-6.61c0-.09,0-.17,0-.26a1.56,1.56,0,0,1,3.12.21h0a3.4,3.4,0,0,0,3.27,3.53h.26a1.56,1.56,0,0,1,.21,3.12Z" transform="translate(-16.81 -7.29)"/></g><path id="Pfad_353" data-name="Pfad 353" class="cls-9" d="M809.15,92.08l-9.37-9.38a3.15,3.15,0,1,0-4.46,4.45h0l9.38,9.38a3.15,3.15,0,0,0,4.45-4.45Z" transform="translate(-16.81 -7.29)"/><path id="Pfad_354" data-name="Pfad 354" class="cls-10" d="M809.15,92.08l-2.94-3a3.15,3.15,0,0,1-4.46,4.45h0l3,3a3.15,3.15,0,0,0,4.45-4.45Z" transform="translate(-16.81 -7.29)"/></g><g id="secateurs"><g id="Gruppe_253" data-name="Gruppe 253"><path id="Pfad_204" data-name="Pfad 204" class="cls-15" d="M727.68,69.41,712.37,58.74,708.75,68l12,8.65Z" transform="translate(-16.81 -7.29)"/><path id="Pfad_205" data-name="Pfad 205" class="cls-15" d="M748.48,24.9l-4.15-.2a26.68,26.68,0,0,0-21.68,9.5l2.35,2V50h11.06l2.88,1Z" transform="translate(-16.81 -7.29)"/></g><path id="Pfad_206" data-name="Pfad 206" class="cls-16" d="M728,41.8V16.06l-3.85,1.24a25.92,25.92,0,0,0-13,9.46,27.13,27.13,0,0,0,5.21,37.17A25.36,25.36,0,0,0,721,66.74L725.05,78h14V46.22Z" transform="translate(-16.81 -7.29)"/><rect id="Rechteck_79" data-name="Rechteck 79" class="cls-17" x="706.19" y="43.71" width="6" height="6"/><path id="Pfad_207" data-name="Pfad 207" class="cls-18" d="M744.87,87.85A61.56,61.56,0,0,0,741.72,76l-1.5-4h-19.1l3.71,8.57c.7,1.63,6.69,16.15.51,26.1a8.69,8.69,0,1,0,14.79,9.14C744.9,108.09,746.54,98.42,744.87,87.85Z" transform="translate(-16.81 -7.29)"/><path id="Pfad_208" data-name="Pfad 208" class="cls-19" d="M719.59,73.7,715.49,70l-6.94-6.26-3,8.86c-.56,1.68-5.84,16.47-17.09,19.73a8.7,8.7,0,0,0,4.85,16.7h0c8.71-2.54,16.4-8.63,22.23-17.6a61.72,61.72,0,0,0,5.61-10.94l1.55-3.95Z" transform="translate(-16.81 -7.29)"/></g><g id="shovel-2"><path id="Pfad_209" data-name="Pfad 209" class="cls-20" d="M648.34,61H618.66A9.71,9.71,0,0,0,609,70.74v32a9.7,9.7,0,0,0,4.76,8.36l12,7.1a15.2,15.2,0,0,0,15.42,0l12-7.1a9.71,9.71,0,0,0,4.75-8.36v-32A9.71,9.71,0,0,0,648.34,61Z" transform="translate(-16.81 -7.29)"/><path id="Pfad_210" data-name="Pfad 210" class="cls-21" d="M634,61H619.46A9.61,9.61,0,0,0,610,70.74v32a9.76,9.76,0,0,0,4.66,8.36l11.79,7.1a14.6,14.6,0,0,0,7.55,2.1Z" transform="translate(-16.81 -7.29)"/><path id="Pfad_211" data-name="Pfad 211" class="cls-22" d="M637,38.23a3.06,3.06,0,0,0-4-3.09,3.17,3.17,0,0,0-2,3V92.37a3.17,3.17,0,0,0,2,3,3.06,3.06,0,0,0,4-3.09Z" transform="translate(-16.81 -7.29)"/><path id="Pfad_212" data-name="Pfad 212" class="cls-23" d="M641.52,12.59a10.2,10.2,0,0,0-7.65-3.48h0a10.18,10.18,0,0,0-10.08,11.53L627,44.24A3.2,3.2,0,0,0,630.2,47h7.34a3.2,3.2,0,0,0,3.22-2.76L644,20.62A10.14,10.14,0,0,0,641.52,12.59Z" transform="translate(-16.81 -7.29)"/><path id="Pfad_213" data-name="Pfad 213" class="cls-24" d="M634,9.11h0a10.18,10.18,0,0,0-10.08,11.53l3.19,23.6A3.2,3.2,0,0,0,630.32,47H634Z" transform="translate(-16.81 -7.29)"/></g><g id="rake"><path id="Pfad_244" data-name="Pfad 244" class="cls-9" d="M514.2,54.39,501.85,66.74l.2,6.88,6.88.2,12.35-12.35Z" transform="translate(-16.81 -7.29)"/><path id="Pfad_245" data-name="Pfad 245" class="cls-10" d="M518.32,58.52,506,70.86l-4-.11.09,2.87,6.88.2,12.35-12.35Z" transform="translate(-16.81 -7.29)"/><path id="Pfad_246" data-name="Pfad 246" class="cls-11" d="M548.33,69.5c-.62,0-15.38,1-28.84-5.74a17,17,0,0,1-7.58-7.58c-6.71-13.46-5.79-28.23-5.74-28.85l6.81.47c0,.13-.83,13.58,5,25.33a10.14,10.14,0,0,0,4.52,4.52c11.75,5.86,25.2,5.05,25.33,5Z" transform="translate(-16.81 -7.29)"/><g id="Gruppe_264" data-name="Gruppe 264"><path id="Pfad_247" data-name="Pfad 247" class="cls-10" d="M519.25,17.2a2.93,2.93,0,0,0-4.14,0h0l-7.95,8,4.14,4.14,7.95-7.95a2.93,2.93,0,0,0,0-4.14Z" transform="translate(-16.81 -7.29)"/><path id="Pfad_248" data-name="Pfad 248" class="cls-10" d="M558.46,56.42a2.92,2.92,0,0,1,0,4.14h0l-8,8-4.14-4.14,8-8a2.9,2.9,0,0,1,4.13,0Z" transform="translate(-16.81 -7.29)"/><path id="Pfad_249" data-name="Pfad 249" class="cls-10" d="M527.09,25A2.93,2.93,0,0,0,523,25h0l-8,8,4.14,4.13,8-8a2.93,2.93,0,0,0,0-4.14Z" transform="translate(-16.81 -7.29)"/><path id="Pfad_250" data-name="Pfad 250" class="cls-10" d="M534.93,32.89a2.9,2.9,0,0,0-4.13,0h0l-8,8L527,45l7.95-8A2.9,2.9,0,0,0,534.93,32.89Z" transform="translate(-16.81 -7.29)"/><path id="Pfad_251" data-name="Pfad 251" class="cls-10" d="M542.78,40.73a2.93,2.93,0,0,0-4.14,0h0l-7.95,8,4.14,4.14,7.95-8a2.93,2.93,0,0,0,0-4.14Z" transform="translate(-16.81 -7.29)"/><path id="Pfad_252" data-name="Pfad 252" class="cls-10" d="M550.62,48.57a2.93,2.93,0,0,0-4.14,0h0l-8,8,4.14,4.13,8-7.95a2.93,2.93,0,0,0,0-4.14Z" transform="translate(-16.81 -7.29)"/></g><path id="Pfad_253" data-name="Pfad 253" class="cls-9" d="M545.68,68.51,507.16,30A3.42,3.42,0,0,1,512,25.15l38.52,38.53a3.41,3.41,0,0,1-4.82,4.83Z" transform="translate(-16.81 -7.29)"/><path id="Pfad_254" data-name="Pfad 254" class="cls-12" d="M501.84,66.74,457,111.57a5,5,0,1,0,7.08,7.08h0l44.84-44.84Z" transform="translate(-16.81 -7.29)"/><path id="Pfad_255" data-name="Pfad 255" class="cls-13" d="M506,70.86,461.14,115.7a5,5,0,0,1-5.28,1.16,5,5,0,0,0,8.23,1.8l44.84-44.84Z" transform="translate(-16.81 -7.29)"/></g><g id="Page-1"><g id="_091---Seed" data-name=" 091---Seed"><g id="Icons"><path id="Shape" class="cls-25" d="M368,76.59c-.53,12.1-3.48,31.28-16.06,40.33-14.73,10.66-38.35,4.55-48.56,1.11a7.54,7.54,0,0,1-5.16-7.11c0-10.78,1.47-35.11,16.2-45.78,12.56-9.1,31.6-6,43.25-2.74a19.42,19.42,0,0,1,.42,2.42,16.59,16.59,0,0,1-1.56,9.2,32.77,32.77,0,0,1,5.41.57A21.27,21.27,0,0,1,368,76.59Z" transform="translate(-16.81 -7.29)"/><path id="Shape-2" class="cls-26" d="M361.92,74.58a31.72,31.72,0,0,0-5.41-.56,16.59,16.59,0,0,0,1.56-9.2,19.9,19.9,0,0,0-.42-2.43,79.25,79.25,0,0,0-24.45-3.18A86.87,86.87,0,0,1,352,62.39a19.9,19.9,0,0,1,.42,2.43,16.51,16.51,0,0,1-1.57,9.2,31.84,31.84,0,0,1,5.42.56,21.29,21.29,0,0,1,6.06,2c-.53,12.1-3.48,31.28-16.06,40.33a34.75,34.75,0,0,1-18.74,6c8.54.39,17.44-.89,24.45-5.91,12.58-9.12,15.54-28.21,16.06-40.32A21.42,21.42,0,0,0,361.92,74.58Z" transform="translate(-16.81 -7.29)"/><path id="Shape-3" class="cls-27" d="M391,46.84v.28a2.6,2.6,0,0,1-2.46,2.45l-1.28.09c-5.89.32-17.74,0-25-7.12-7.84-7.56-8-20.73-7.84-26A2.57,2.57,0,0,1,356.85,14c5.26-.44,18.45-.61,26.33,7s8.11,20.35,7.82,25.8Z" transform="translate(-16.81 -7.29)"/><path id="Shape-4" class="cls-28" d="M383,21.58c-6.83-6.64-17.95-7-23.51-6.78,5.77.32,13.16,1.77,18.2,6.71,7.26,7.08,7.58,19.15,7.31,24.28V47a2.75,2.75,0,0,1-2.61,2.67l-1.34.1a54.22,54.22,0,0,0,6,0l1.36-.1A2.75,2.75,0,0,0,391,47v.16c.27-5.53-.08-18.73-8-26.44Z" transform="translate(-16.81 -7.29)"/><path id="Shape-5" class="cls-29" d="M402,69.07c-2.86,6-10.27,9.74-19,6.73A23,23,0,0,1,378,73.34a16.82,16.82,0,0,0-5.43-3.08,9.16,9.16,0,0,0-5.8.88,26.44,26.44,0,0,0-5.13,3.44,31.84,31.84,0,0,0-5.42-.56,16.52,16.52,0,0,0,1.57-9.2c6.24-7.13,15.17-9.4,22.88-5.76a25.67,25.67,0,0,1,3.76,2.11c2.13,1.28,6.12,2.82,6.89,1.28a7.81,7.81,0,0,0-.34-4.12,58.64,58.64,0,0,0-3.76-8.6l1.28-.09A2.6,2.6,0,0,0,391,47.12v-.28C400.18,50.45,406,60.48,402,69.07Z" transform="translate(-16.81 -7.29)"/><path id="Shape-6" class="cls-30" d="M391,46.84v.28a2.6,2.6,0,0,1-1.26,2.11c6.53,4.63,10,12.71,6.6,19.84a13.76,13.76,0,0,1-10.17,7.52A14.33,14.33,0,0,0,402,69.07C406.05,60.48,400.2,50.45,391,46.84Z" transform="translate(-16.81 -7.29)"/><path id="Shape-7" class="cls-31" d="M305.88,113.24a1.88,1.88,0,0,1-1.88-1.88h0c0-7.26.66-31.69,13.82-41.22,4.55-3.18,10.63-4.89,18.34-4.89a1.88,1.88,0,0,1,.09,3.76h-.09c-6.83,0-12.22,1.41-16.1,4.21-12,8.79-12.3,33.24-12.3,38.13a1.88,1.88,0,0,1-1.88,1.88Z" transform="translate(-16.81 -7.29)"/></g><g id="Icons_copy" data-name="Icons copy"><path id="Shape-8" d="M346.39,109c-3.86,2.8-9.25,4.21-16.08,4.21a1.88,1.88,0,1,0-.09,3.76h.09c7.63,0,13.78-1.65,18.3-4.93a1.89,1.89,0,0,0,.59-2.26A1.37,1.37,0,0,0,348,109Z" transform="translate(-16.81 -7.29)"/><path id="Shape-9" d="M393.16,46c.13-6.26-.7-18.49-8.41-26-8.38-8.16-22.19-8-27.75-7.56a4.45,4.45,0,0,0-4.25,4.31c-.29,5.64,0,19.37,8.33,27.53C367.79,50.78,378,52,384.59,52h1.67a46.88,46.88,0,0,1,3.14,7.28,12.34,12.34,0,0,1,.47,2.33A12.16,12.16,0,0,1,385.64,60l-.72-.45a23.84,23.84,0,0,0-3.17-1.75,20.68,20.68,0,0,0-22.57,3.65,20.67,20.67,0,0,0-1.06-2.88,1.88,1.88,0,0,0-3.4,1.6c-13-3.28-29.67-4.61-41.47,3.8-15.5,11.24-16.93,36.84-16.93,47.31a9.41,9.41,0,0,0,6.44,8.88,90.91,90.91,0,0,0,27.53,5c8,0,16.19-1.58,22.74-6.32,12.18-8.83,15.68-26.46,16.6-38.2L370,81a1.88,1.88,0,0,0,3.12-2.1A11.29,11.29,0,0,0,369,75.34l-.28-.17a19,19,0,0,0-2.5-1.07,15.34,15.34,0,0,1,1.68-.94,7.15,7.15,0,0,1,4.59-.72,10.22,10.22,0,0,1,3.42,1.88c.45.34.92.68,1.39,1A25.5,25.5,0,0,0,382.56,78a21.44,21.44,0,0,0,6.78,1.19A15.65,15.65,0,0,0,404.18,57.4,21.8,21.8,0,0,0,393.16,46ZM364,41.25c-7.28-7.09-7.47-19.57-7.28-24.63a.71.71,0,0,1,.68-.75h0a31.16,31.16,0,0,1,4.1-.15c6,0,15,1.07,20.82,6.67s7,14.31,7.24,20.33c-3.2-5.64-9.76-14.14-22.57-21.14a1.9,1.9,0,1,0-1.88,3.31h0c15,8.24,20.85,18.51,22.74,23-5.42.34-17,.13-23.89-6.58Zm-13.14,74.14c-14.16,10.25-37.5,4-46.86.85a5.66,5.66,0,0,1-3.92-5.34c0-9.89,1.3-34,15.43-44.24,11.75-8.52,30.09-5.54,40.54-2.74a14.83,14.83,0,0,1-1.22,9.25,1.89,1.89,0,0,0,.84,2.53,1.86,1.86,0,0,0,.84.2A27.31,27.31,0,0,1,366,77.78C365.42,88.65,362.58,106.87,350.86,115.39Zm49.65-47.13c-2.25,4.76-8.46,8.6-16.73,5.78a21.55,21.55,0,0,1-4.48-2.3l-1.24-.84a13,13,0,0,0-4.82-2.52,10.73,10.73,0,0,0-7,1,26.2,26.2,0,0,0-4.86,3.14l-2.18-.3a18.1,18.1,0,0,0,.79-6.78c5.64-6,13.43-7.85,20.2-4.7a17.46,17.46,0,0,1,2.71,1.5l.75.47c.19.11,4.76,2.85,7.64,2.05a3.06,3.06,0,0,0,1.88-1.53,7.92,7.92,0,0,0-.24-5.49,44.33,44.33,0,0,0-2.6-6.58,4.57,4.57,0,0,0,1.11-.64,5.3,5.3,0,0,0,.92-1,17.85,17.85,0,0,1,8.27,8.93A12.31,12.31,0,0,1,400.51,68.26Z" transform="translate(-16.81 -7.29)"/></g></g></g><g id="bauernhof"><path id="Pfad_175" data-name="Pfad 175" class="cls-32" d="M241,120H138V62.47l12.4-26.32a3.16,3.16,0,0,1,1.19-1.32l36.27-21.95a3,3,0,0,1,3.08,0l36.27,21.95a3.15,3.15,0,0,1,1.18,1.3l12.3,25.69a3.19,3.19,0,0,1,.31,1.36Z" transform="translate(-16.81 -7.29)"/><path id="Pfad_176" data-name="Pfad 176" class="cls-33" d="M240.69,61.82,228.51,36.14a3,3,0,0,0-1.17-1.3l-35.92-22a3,3,0,0,0-1.42-.42V120h51V63.19A3.09,3.09,0,0,0,240.69,61.82Z" transform="translate(-16.81 -7.29)"/><path id="Pfad_177" data-name="Pfad 177" class="cls-34" d="M176.11,70A1.13,1.13,0,0,1,175,68.86V44.14A1.13,1.13,0,0,1,176.11,43h26.78A1.13,1.13,0,0,1,204,44.14V68.86A1.13,1.13,0,0,1,202.89,70Z" transform="translate(-16.81 -7.29)"/><path id="Pfad_178" data-name="Pfad 178" class="cls-35" d="M202.92,43H190V70h12.92A1.11,1.11,0,0,0,204,68.86V44.14A1.11,1.11,0,0,0,202.92,43Z" transform="translate(-16.81 -7.29)"/><path id="Pfad_179" data-name="Pfad 179" class="cls-36" d="M202.7,72H176.3a3.34,3.34,0,0,1-3.3-3.36V44.36A3.34,3.34,0,0,1,176.3,41h26.4a3.34,3.34,0,0,1,3.3,3.36V68.64A3.33,3.33,0,0,1,202.7,72ZM180,66h20V48H180Z" transform="translate(-16.81 -7.29)"/><path id="Pfad_180" data-name="Pfad 180" class="cls-37" d="M202.8,41H190v7h10V66H190v6h12.8a3.29,3.29,0,0,0,3.2-3.36V44.37A3.29,3.29,0,0,0,202.8,41Z" transform="translate(-16.81 -7.29)"/><path id="Pfad_181" data-name="Pfad 181" class="cls-38" d="M136.62,66.37a3.2,3.2,0,0,1-1.43-.34,3.44,3.44,0,0,1-1.54-4.54L146.88,33.3a3.38,3.38,0,0,1,1.3-1.45L187.84,7.76a3.22,3.22,0,0,1,3.36,0l39.67,24.09a3.36,3.36,0,0,1,1.29,1.43l13.45,28.19A3.44,3.44,0,0,1,244.1,66a3.27,3.27,0,0,1-4.38-1.46l0-.09-13-27.28L189.52,14.64,152.4,37.19,139.6,64.45A3.3,3.3,0,0,1,136.62,66.37Z" transform="translate(-16.81 -7.29)"/><path id="Pfad_182" data-name="Pfad 182" class="cls-39" d="M246,61.47,232.59,33.28a3.36,3.36,0,0,0-1.29-1.43L191.64,7.76A3.16,3.16,0,0,0,190,7.29v7.37l37.09,22.53,13,27.28a3.26,3.26,0,0,0,4.33,1.59l.09,0A3.44,3.44,0,0,0,246,61.47Z" transform="translate(-16.81 -7.29)"/><path id="Pfad_183" data-name="Pfad 183" class="cls-40" d="M164,85h52v31H164Z" transform="translate(-16.81 -7.29)"/><path id="Pfad_184" data-name="Pfad 184" class="cls-41" d="M190,85h26v31H190Z" transform="translate(-16.81 -7.29)"/><path id="Pfad_185" data-name="Pfad 185" class="cls-38" d="M215.7,82H163.3a3.3,3.3,0,0,0-3.3,3.3V120h59V85.3A3.3,3.3,0,0,0,215.7,82Zm-32.35,18.86L167,110.76V91ZM175.44,88h28.4l-14.2,8.59Zm14.2,16.41,14.2,8.59h-28.4Zm6-3.55L212,91v19.78Z" transform="translate(-16.81 -7.29)"/><path id="Pfad_186" data-name="Pfad 186" class="cls-42" d="M215.74,82H190v7h13.83l-14.2,8L189,97v7.8l.63,0,14.2,8.28H190v7h29V85.29A3.27,3.27,0,0,0,215.74,82ZM212,110.76l-16.35-9.9L212,91Z" transform="translate(-16.81 -7.29)"/></g><g id="fertilizer"><g id="Gruppe_252" data-name="Gruppe 252"><path id="Pfad_187" data-name="Pfad 187" class="cls-43" d="M63.62,16.12A14.67,14.67,0,0,0,53,20.3c-.48,0-1-.07-1.46-.07-6.35,0-11.5,3.95-11.5,8.82v0c-5.32.24-9.54,3.63-9.54,7.77l31.92,5.1,33.16-5.1c0-4.14-4.22-7.53-9.54-7.77v0c0-4.87-5.15-8.82-11.5-8.82h-.28A14.68,14.68,0,0,0,63.62,16.12Z" transform="translate(-16.81 -7.29)"/><path id="Pfad_188" data-name="Pfad 188" class="cls-44" d="M99.17,46.81l-38.05-5-35.51,5C21,62.62,18,85.44,21.24,106.13l38.68,5.8,43.62-5.79c3.26-20.69.23-43.52-4.37-59.32Z" transform="translate(-16.81 -7.29)"/><path id="Pfad_189" data-name="Pfad 189" class="cls-45" d="M62.39,37H25.45a5.1,5.1,0,0,0-5.05,3.94A5,5,0,0,0,25.29,47h75.35a5.1,5.1,0,0,0,5-3.94A5,5,0,0,0,100.8,37H62.39Z" transform="translate(-16.81 -7.29)"/><path id="Pfad_190" data-name="Pfad 190" class="cls-45" d="M103.58,106H21.19c-6.2,3.68-6.84,14,4.79,14H98.8c11.63,0,11-10.31,4.79-14Z" transform="translate(-16.81 -7.29)"/><path id="Pfad_191" data-name="Pfad 191" class="cls-46" d="M51.56,20.31c-6.39,0-11.56,4-11.56,8.86v0c-5.35.24-9.59,3.65-9.59,7.81H53.18c1-8.26,6.56-15.53,14.78-20.31a17.17,17.17,0,0,0-4.22-.52A14.71,14.71,0,0,0,53,20.38a14.19,14.19,0,0,0-1.47-.07Z" transform="translate(-16.81 -7.29)"/><path id="Pfad_192" data-name="Pfad 192" class="cls-43" d="M29.07,37H25.54a5,5,0,1,0,0,10h9.93a5,5,0,1,1,0-10Z" transform="translate(-16.81 -7.29)"/><path id="Pfad_193" data-name="Pfad 193" class="cls-45" d="M32.42,47H25.6C21,62.72,18,85.42,21.26,106h6.87c-3.25-20.58-.23-43.28,4.34-59Z" transform="translate(-16.81 -7.29)"/><path id="Pfad_194" data-name="Pfad 194" class="cls-43" d="M31.11,106H21.23c-6.2,3.68-6.84,14,4.79,14h9.87c-10.5,0-11-8.43-6.41-12.76A9.35,9.35,0,0,1,31.11,106Z" transform="translate(-16.81 -7.29)"/><path id="Pfad_195" data-name="Pfad 195" class="cls-47" d="M51,57.45c-4.07,0-5.53,2.45-5.46,6.27.39,24.41,16.89,33.9,27.58,24.51l.11-.1.06,0C85.5,77.09,70.43,58.27,51,57.44Z" transform="translate(-16.81 -7.29)"/><path id="Pfad_196" data-name="Pfad 196" class="cls-48" d="M50,57.46c-3.72.21-5.07,2.59-5,6.25.38,23.79,16.06,33.41,26.76,25.2C61.57,92.27,49.51,82.3,49.18,61.47a7.69,7.69,0,0,1,.82-4Z" transform="translate(-16.81 -7.29)"/></g><path id="Pfad_197" data-name="Pfad 197" class="cls-49" d="M80.56,94,70.19,82.31l.74-5.87a1.56,1.56,0,0,0-.71-1.57A1.6,1.6,0,0,0,67.78,76h0l-.4,3.14-3.94-4.44L64,70.13a1.59,1.59,0,0,0-3.14-.46v0l-.23,1.83-2.58-2.91a1.59,1.59,0,0,0-2.42,2.07l0,0,2.66,3-2.27.08a1.58,1.58,0,0,0-1.43.93A1.6,1.6,0,0,0,56.1,77H56l5.16-.17,4.18,4.72-3.9.13a1.59,1.59,0,0,0-1.39.85A1.68,1.68,0,0,0,61.55,85h.25l6.11-.21L77.81,96a1.59,1.59,0,0,0,1.92.41A1.53,1.53,0,0,0,80.16,94h.4Z" transform="translate(-16.81 -7.29)"/></g></g></svg>