<svg id="Ebene_1" data-name="Ebene 1" xmlns="http://www.w3.org/2000/svg" viewBox="0 0 983 108.7"><defs><style>.cls-1{fill:#f3e3bc;}.cls-2{fill:none;}.cls-3{isolation:isolate;}.cls-4{fill:#fff;}.cls-5{fill:#d9bc9d;}.cls-6{fill:#8c6239;}.cls-7{fill:#4b2810;}.cls-8{fill:#f7e434;}.cls-9{fill:#518ed6;}.cls-10{fill:#235c2e;}</style></defs><title>Farben</title><g id="Bildmaterial_1" data-name="Bildmaterial 1"><g id="Gruppe_261" data-name="Gruppe 261"><g id="Rechteck_130" data-name="Rechteck 130"><rect class="cls-1" y="0.78" width="106.35" height="105.57"/><rect class="cls-2" x="0.39" y="1.17" width="105.57" height="104.79"/></g><g id="_F3E3BC" data-name=" F3E3BC" class="cls-3"><g class="cls-3"><path class="cls-4" d="M7.79,105.66l.35-1.78c-.87,0-1.31-.37-1.31-1a1,1,0,0,1,.33-.78,1.39,1.39,0,0,1,1-.3h.44L9.12,99h-1a1.34,1.34,0,0,1-1-.31,1,1,0,0,1-.34-.76,1,1,0,0,1,.33-.77,1.44,1.44,0,0,1,1-.29H9.55L10,94.66a4.42,4.42,0,0,1,.23-.87,1.11,1.11,0,0,1,.35-.48,1,1,0,0,1,.59-.16,1,1,0,0,1,.77.27.9.9,0,0,1,.27.68c0,.07-.05.39-.16,1l-.35,1.77h2.09l.45-2.18c.07-.33.13-.6.19-.8a1,1,0,0,1,.31-.52.89.89,0,0,1,.65-.21,1.09,1.09,0,0,1,.77.26.9.9,0,0,1,.27.69c0,.14,0,.27,0,.4s0,.25-.07.36,0,.2,0,.23l-.36,1.79c.91,0,1.37.37,1.37,1.06a1,1,0,0,1-.33.77A1.39,1.39,0,0,1,16,99h-.49L15,101.75H16a1.31,1.31,0,0,1,1,.31,1.06,1.06,0,0,1,0,1.53,1.42,1.42,0,0,1-1,.29H14.55l-.45,2.19c-.07.35-.13.62-.19.82a1,1,0,0,1-.31.5.92.92,0,0,1-.65.21,1.05,1.05,0,0,1-.76-.27.93.93,0,0,1-.28-.69,4.58,4.58,0,0,1,.14-1l.35-1.78H10.29l-.45,2.19a4.76,4.76,0,0,1-.35,1.17.82.82,0,0,1-.8.36,1.06,1.06,0,0,1-.77-.27.92.92,0,0,1-.27-.69,3,3,0,0,1,0-.49C7.73,106,7.77,105.8,7.79,105.66ZM13.38,99H11.27l-.57,2.78h2.13Z" transform="translate(-0.11 -8)"/><path class="cls-4" d="M27.35,95.55H21.77v3.58h4.66a1.36,1.36,0,0,1,1,.3,1,1,0,0,1,.32.77,1,1,0,0,1-.32.78,1.44,1.44,0,0,1-1,.28H21.77v4.61a1.9,1.9,0,0,1-.4,1.31,1.33,1.33,0,0,1-1,.42,1.3,1.3,0,0,1-1-.43,1.82,1.82,0,0,1-.4-1.3V95.11a2.39,2.39,0,0,1,.18-1,1.08,1.08,0,0,1,.57-.56,2.37,2.37,0,0,1,1-.18h6.68a1.47,1.47,0,0,1,1,.3,1.11,1.11,0,0,1,0,1.58A1.47,1.47,0,0,1,27.35,95.55Z" transform="translate(-0.11 -8)"/><path class="cls-4" d="M34.63,98.92a2.36,2.36,0,0,0,1.51-.52,2,2,0,0,0,.13-2.75,1.82,1.82,0,0,0-1.37-.52,2.41,2.41,0,0,0-1,.16,1.48,1.48,0,0,0-.59.43,3.06,3.06,0,0,0-.42.68l-.36.8a.65.65,0,0,1-.34.31,1.32,1.32,0,0,1-.57.12,1,1,0,0,1-.71-.31,1.13,1.13,0,0,1-.32-.83,2.13,2.13,0,0,1,.31-1,3.92,3.92,0,0,1,.87-1,4.53,4.53,0,0,1,1.44-.8,5.77,5.77,0,0,1,1.92-.3,5.6,5.6,0,0,1,1.69.25,4,4,0,0,1,1.33.74,3.08,3.08,0,0,1,1.13,2.46,3.19,3.19,0,0,1-.41,1.64,6,6,0,0,1-1.19,1.33,5.23,5.23,0,0,1,1.25.91,3.65,3.65,0,0,1,.77,1.14,3.58,3.58,0,0,1,.26,1.36,4.24,4.24,0,0,1-.35,1.67,4.16,4.16,0,0,1-1,1.45,4.89,4.89,0,0,1-1.61,1,5.68,5.68,0,0,1-2.06.36,5,5,0,0,1-2.05-.41,4.62,4.62,0,0,1-1.5-1,4.81,4.81,0,0,1-.88-1.28,2.64,2.64,0,0,1-.31-1.09,1.17,1.17,0,0,1,.36-.89,1.24,1.24,0,0,1,.89-.34.93.93,0,0,1,.52.16.75.75,0,0,1,.33.38,6.43,6.43,0,0,0,1.06,2,2,2,0,0,0,1.6.64,2.47,2.47,0,0,0,1.14-.29,2.41,2.41,0,0,0,.91-.86,2.56,2.56,0,0,0,.35-1.33,2.39,2.39,0,0,0-.61-1.75,2.21,2.21,0,0,0-1.7-.64l-.59,0-.51,0a1.22,1.22,0,0,1-.82-.26,1,1,0,0,1-.28-.73.89.89,0,0,1,.34-.74,1.57,1.57,0,0,1,1-.28Z" transform="translate(-0.11 -8)"/><path class="cls-4" d="M51.64,95.55H45.25V99h5.88a1.42,1.42,0,0,1,1,.29,1,1,0,0,1,.32.77,1,1,0,0,1-.32.78,1.36,1.36,0,0,1-1,.3H45.25v4h6.61a1.41,1.41,0,0,1,1,.31,1.06,1.06,0,0,1,.34.83,1,1,0,0,1-.34.8,1.41,1.41,0,0,1-1,.31H44.15a1.78,1.78,0,0,1-1.33-.41,1.81,1.81,0,0,1-.41-1.32V95.11a2.38,2.38,0,0,1,.19-1,1.09,1.09,0,0,1,.56-.56,2.37,2.37,0,0,1,1-.18h7.49a1.44,1.44,0,0,1,1,.3,1.11,1.11,0,0,1,0,1.58A1.44,1.44,0,0,1,51.64,95.55Z" transform="translate(-0.11 -8)"/><path class="cls-4" d="M59.28,98.92a2.37,2.37,0,0,0,1.52-.52,1.8,1.8,0,0,0,.63-1.48,1.76,1.76,0,0,0-1.87-1.79,2.41,2.41,0,0,0-1,.16,1.6,1.6,0,0,0-.6.43,3.48,3.48,0,0,0-.41.68l-.36.8a.65.65,0,0,1-.34.31,1.34,1.34,0,0,1-.58.12,1,1,0,0,1-.7-.31,1.13,1.13,0,0,1-.32-.83,2.22,2.22,0,0,1,.3-1,4,4,0,0,1,.88-1,4.53,4.53,0,0,1,1.44-.8,5.77,5.77,0,0,1,1.92-.3,5.65,5.65,0,0,1,1.69.25,3.87,3.87,0,0,1,1.32.74,3,3,0,0,1,.85,1.1A3.25,3.25,0,0,1,64,96.75a3.1,3.1,0,0,1-.42,1.64,5.67,5.67,0,0,1-1.18,1.33,5.23,5.23,0,0,1,1.25.91,3.65,3.65,0,0,1,.77,1.14,3.58,3.58,0,0,1,.26,1.36,4.24,4.24,0,0,1-.35,1.67,4.19,4.19,0,0,1-1,1.45,4.79,4.79,0,0,1-1.61,1,5.62,5.62,0,0,1-2.05.36,5,5,0,0,1-2.06-.41,4.68,4.68,0,0,1-1.49-1,4.86,4.86,0,0,1-.89-1.28,2.77,2.77,0,0,1-.3-1.09,1.17,1.17,0,0,1,.36-.89,1.24,1.24,0,0,1,.89-.34.93.93,0,0,1,.52.16.73.73,0,0,1,.32.38,6.43,6.43,0,0,0,1.07,2,2,2,0,0,0,1.6.64,2.47,2.47,0,0,0,1.14-.29,2.38,2.38,0,0,0,.9-.86,2.48,2.48,0,0,0,.36-1.33,2.39,2.39,0,0,0-.61-1.75,2.22,2.22,0,0,0-1.7-.64l-.59,0-.52,0a1.18,1.18,0,0,1-.81-.26,1,1,0,0,1-.28-.73.89.89,0,0,1,.34-.74,1.57,1.57,0,0,1,1-.28Z" transform="translate(-0.11 -8)"/><path class="cls-4" d="M73.05,107.36H68.77a1.74,1.74,0,0,1-1.32-.41,1.89,1.89,0,0,1-.4-1.32V95.11a1.85,1.85,0,0,1,.41-1.34,1.8,1.8,0,0,1,1.31-.4h4.54a10.91,10.91,0,0,1,1.73.12,3.79,3.79,0,0,1,1.32.48,3.69,3.69,0,0,1,.88.75,3.35,3.35,0,0,1,.58,1,3.34,3.34,0,0,1-1.9,4.24,3.41,3.41,0,0,1,2.76,3.41,3.86,3.86,0,0,1-.6,2.12,3.65,3.65,0,0,1-1.62,1.39,6.08,6.08,0,0,1-1.47.37A13.93,13.93,0,0,1,73.05,107.36ZM69.89,95.5v3.62h2.59a5.31,5.31,0,0,0,1.64-.2,1.6,1.6,0,0,0,.89-.77,1.83,1.83,0,0,0,.23-.9,1.39,1.39,0,0,0-.75-1.4,5.61,5.61,0,0,0-2.3-.35Zm3,5.65h-3v4.08h3q2.88,0,2.88-2.07a1.67,1.67,0,0,0-.75-1.53A4.14,4.14,0,0,0,72.84,101.15Z" transform="translate(-0.11 -8)"/><path class="cls-4" d="M93.06,102.94a3.73,3.73,0,0,1-.33,1.45,5.29,5.29,0,0,1-2.84,2.74,6.36,6.36,0,0,1-2.56.47,8.86,8.86,0,0,1-2-.21,5.35,5.35,0,0,1-3-1.82,6.81,6.81,0,0,1-1-1.48,7.57,7.57,0,0,1-.58-1.74,9.5,9.5,0,0,1-.2-2,8.68,8.68,0,0,1,.49-3,6.59,6.59,0,0,1,1.41-2.29,6.17,6.17,0,0,1,2.15-1.44,6.94,6.94,0,0,1,2.62-.5,6.59,6.59,0,0,1,3,.68,5.51,5.51,0,0,1,2,1.67A3.35,3.35,0,0,1,93,97.37a1.28,1.28,0,0,1-.34.86,1.09,1.09,0,0,1-.84.37,1.14,1.14,0,0,1-.81-.26,3.79,3.79,0,0,1-.61-.89,4.25,4.25,0,0,0-1.3-1.55,3.15,3.15,0,0,0-1.85-.52,3.36,3.36,0,0,0-2.78,1.33,6,6,0,0,0-1,3.77,7.15,7.15,0,0,0,.46,2.72,3.42,3.42,0,0,0,1.3,1.61,3.57,3.57,0,0,0,2,.54,3.4,3.4,0,0,0,2.06-.61A3.6,3.6,0,0,0,90.52,103a2.91,2.91,0,0,1,.45-.9,1,1,0,0,1,.86-.35,1.21,1.21,0,0,1,.86.35A1.16,1.16,0,0,1,93.06,102.94Z" transform="translate(-0.11 -8)"/></g></g></g><g id="Gruppe_262" data-name="Gruppe 262"><g id="Rechteck_129" data-name="Rechteck 129"><rect class="cls-5" x="146.24" y="2.35" width="106.35" height="105.57"/><rect class="cls-2" x="146.63" y="2.74" width="105.57" height="104.79"/></g><g id="_D9BC9D" data-name=" D9BC9D" class="cls-3"><g class="cls-3"><path class="cls-4" d="M155.67,103.79,156,102q-1.32,0-1.32-1.05a1,1,0,0,1,.33-.78,1.39,1.39,0,0,1,1-.3h.45L157,97.1h-1a1.34,1.34,0,0,1-1-.31,1,1,0,0,1,0-1.53,1.44,1.44,0,0,1,1-.29h1.42l.45-2.18a5.26,5.26,0,0,1,.23-.87,1.13,1.13,0,0,1,.36-.48.93.93,0,0,1,.58-.16,1.1,1.1,0,0,1,.78.26,1,1,0,0,1,.26.69c0,.07-.05.39-.16,1L159.58,95h2.09l.46-2.18a8,8,0,0,1,.18-.81,1,1,0,0,1,.31-.51.92.92,0,0,1,.65-.21,1,1,0,0,1,.77.26.9.9,0,0,1,.27.69c0,.14,0,.27,0,.39l-.06.37c0,.12,0,.19,0,.23L163.83,95c.91,0,1.36.37,1.36,1.06a1,1,0,0,1-.32.76,1.44,1.44,0,0,1-1,.29h-.48l-.58,2.78h1.06a1.39,1.39,0,0,1,1,.3,1.06,1.06,0,0,1,.32.78,1,1,0,0,1-.32.76,1.42,1.42,0,0,1-1,.29h-1.47L162,104.2q-.1.52-.18.81a1.23,1.23,0,0,1-.31.51,1,1,0,0,1-.66.21,1.05,1.05,0,0,1-.76-.27.93.93,0,0,1-.27-.69,4.41,4.41,0,0,1,.13-1l.35-1.78h-2.11l-.44,2.19a5.5,5.5,0,0,1-.36,1.17.82.82,0,0,1-.8.36,1,1,0,0,1-.76-.27.9.9,0,0,1-.28-.69,3.24,3.24,0,0,1,.05-.5Q155.64,104,155.67,103.79Zm5.59-6.69h-2.11l-.57,2.78h2.13Z" transform="translate(-0.11 -8)"/><path class="cls-4" d="M168.63,91.5h3.69a10.34,10.34,0,0,1,2.47.26,4.6,4.6,0,0,1,1.88,1q2.18,1.86,2.18,5.69a11,11,0,0,1-.22,2.3,6.69,6.69,0,0,1-.68,1.87,5.63,5.63,0,0,1-1.17,1.5,5.45,5.45,0,0,1-1.23.81,6.16,6.16,0,0,1-1.44.43,11.27,11.27,0,0,1-1.73.12h-3.7a2.37,2.37,0,0,1-1.16-.23,1.11,1.11,0,0,1-.51-.66,4.14,4.14,0,0,1-.12-1.1V93.23a1.49,1.49,0,0,1,1.74-1.73Zm1.1,2.24v9.5h2.14a10.87,10.87,0,0,0,1.11,0,3.8,3.8,0,0,0,.83-.19,2.3,2.3,0,0,0,.75-.43c.94-.8,1.42-2.18,1.42-4.14a6.1,6.1,0,0,0-.63-3.11A2.79,2.79,0,0,0,173.81,94a7.52,7.52,0,0,0-2.21-.28Z" transform="translate(-0.11 -8)"/><path class="cls-4" d="M187.78,99.22a4.23,4.23,0,0,1-1.41,1.12,3.91,3.91,0,0,1-1.72.38,4.07,4.07,0,0,1-3-1.32,4.57,4.57,0,0,1-.87-1.46,5.21,5.21,0,0,1-.3-1.76,5.07,5.07,0,0,1,.34-1.86,4.51,4.51,0,0,1,1-1.53,4.61,4.61,0,0,1,1.53-1,5.51,5.51,0,0,1,4.14.09,4.3,4.3,0,0,1,1.63,1.3,6.4,6.4,0,0,1,1,2.15,11.53,11.53,0,0,1,.35,3,12.58,12.58,0,0,1-.37,3.23,6.85,6.85,0,0,1-1.08,2.34,4.53,4.53,0,0,1-1.71,1.42,5.23,5.23,0,0,1-2.25.46,4.71,4.71,0,0,1-2.16-.47,3.72,3.72,0,0,1-1.39-1.18,2.37,2.37,0,0,1-.48-1.35,1,1,0,0,1,.3-.71,1,1,0,0,1,.75-.32,1.24,1.24,0,0,1,.75.24,1.34,1.34,0,0,1,.51.7,1.89,1.89,0,0,0,.7.92,1.84,1.84,0,0,0,1.09.35,2,2,0,0,0,1-.28,2.46,2.46,0,0,0,.83-.78A7.69,7.69,0,0,0,187.78,99.22Zm-.22-2.92a3.87,3.87,0,0,0-.18-1.2,2.87,2.87,0,0,0-.5-.95,2.2,2.2,0,0,0-.76-.63,2.13,2.13,0,0,0-1-.23,1.92,1.92,0,0,0-1.54.78,3.17,3.17,0,0,0-.63,2.06,3.05,3.05,0,0,0,.63,2,2,2,0,0,0,1.6.75,2.21,2.21,0,0,0,1.13-.31,2.31,2.31,0,0,0,.88-.9A2.8,2.8,0,0,0,187.56,96.3Z" transform="translate(-0.11 -8)"/><path class="cls-4" d="M198.94,105.49h-4.28a1.78,1.78,0,0,1-1.32-.41,1.86,1.86,0,0,1-.4-1.33V93.23a1.84,1.84,0,0,1,.41-1.33,1.8,1.8,0,0,1,1.31-.4h4.53a11,11,0,0,1,1.74.12,3.6,3.6,0,0,1,1.32.48,3.47,3.47,0,0,1,.88.75,3.23,3.23,0,0,1,.58,1,3.45,3.45,0,0,1,.2,1.16,3.21,3.21,0,0,1-2.1,3.07,3.42,3.42,0,0,1,2.76,3.42,3.88,3.88,0,0,1-.6,2.12,3.54,3.54,0,0,1-1.63,1.38,5.44,5.44,0,0,1-1.47.38A15.49,15.49,0,0,1,198.94,105.49Zm-3.16-11.86v3.61h2.59A5,5,0,0,0,200,97a1.53,1.53,0,0,0,.88-.76,1.73,1.73,0,0,0,.24-.9,1.41,1.41,0,0,0-.75-1.41,5.82,5.82,0,0,0-2.3-.34Zm2.95,5.65h-2.95v4.08h3q2.88,0,2.88-2.07a1.69,1.69,0,0,0-.75-1.54A4.26,4.26,0,0,0,198.73,99.28Z" transform="translate(-0.11 -8)"/><path class="cls-4" d="M219,101.07a3.73,3.73,0,0,1-.33,1.45,5.09,5.09,0,0,1-1,1.52,5.25,5.25,0,0,1-1.8,1.22,6.57,6.57,0,0,1-2.56.47,9,9,0,0,1-2-.21,5.8,5.8,0,0,1-1.64-.65,5.53,5.53,0,0,1-1.36-1.17,6.81,6.81,0,0,1-.95-1.48,7.59,7.59,0,0,1-.59-1.74,9.54,9.54,0,0,1-.19-2,8.66,8.66,0,0,1,.49-3,6.5,6.5,0,0,1,1.41-2.29,6.24,6.24,0,0,1,2.15-1.45,6.94,6.94,0,0,1,2.62-.49,6.5,6.5,0,0,1,3,.68,5.51,5.51,0,0,1,2,1.67,3.33,3.33,0,0,1,.71,1.89,1.24,1.24,0,0,1-.35.86,1.11,1.11,0,0,1-.83.37,1.14,1.14,0,0,1-.81-.26,3.51,3.51,0,0,1-.61-.89A4.25,4.25,0,0,0,215,94a3.15,3.15,0,0,0-1.85-.52,3.34,3.34,0,0,0-2.78,1.33,6,6,0,0,0-1,3.77,6.87,6.87,0,0,0,.46,2.71,3.4,3.4,0,0,0,1.3,1.62,3.55,3.55,0,0,0,2,.54,3.46,3.46,0,0,0,2.06-.61,3.71,3.71,0,0,0,1.28-1.78,3.15,3.15,0,0,1,.44-.9,1,1,0,0,1,.86-.35,1.22,1.22,0,0,1,.87.35A1.2,1.2,0,0,1,219,101.07Z" transform="translate(-0.11 -8)"/><path class="cls-4" d="M227.93,99.22a4.23,4.23,0,0,1-1.41,1.12,3.91,3.91,0,0,1-1.72.38,4.11,4.11,0,0,1-1.68-.35,4,4,0,0,1-1.34-1,4.59,4.59,0,0,1-.88-1.46,5.21,5.21,0,0,1-.3-1.76,5.07,5.07,0,0,1,.34-1.86,4.51,4.51,0,0,1,1-1.53,4.61,4.61,0,0,1,1.53-1,5.51,5.51,0,0,1,4.14.09,4.3,4.3,0,0,1,1.63,1.3,6.22,6.22,0,0,1,1,2.15,11.53,11.53,0,0,1,.35,3,12.58,12.58,0,0,1-.37,3.23,6.85,6.85,0,0,1-1.08,2.34,4.53,4.53,0,0,1-1.71,1.42,5.23,5.23,0,0,1-2.25.46,4.71,4.71,0,0,1-2.16-.47,3.72,3.72,0,0,1-1.39-1.18,2.37,2.37,0,0,1-.48-1.35,1,1,0,0,1,.3-.71,1,1,0,0,1,.75-.32,1.24,1.24,0,0,1,.75.24,1.34,1.34,0,0,1,.51.7,1.89,1.89,0,0,0,.7.92,1.85,1.85,0,0,0,1.1.35,2,2,0,0,0,1-.28,2.46,2.46,0,0,0,.83-.78A7.57,7.57,0,0,0,227.93,99.22Zm-.22-2.92a3.87,3.87,0,0,0-.18-1.2,3,3,0,0,0-.49-.95,2.33,2.33,0,0,0-.77-.63,2.1,2.1,0,0,0-1-.23,1.9,1.9,0,0,0-1.53.78,3.17,3.17,0,0,0-.63,2.06,3.05,3.05,0,0,0,.63,2,2,2,0,0,0,1.59.75,2.21,2.21,0,0,0,1.13-.31,2.31,2.31,0,0,0,.88-.9A2.7,2.7,0,0,0,227.71,96.3Z" transform="translate(-0.11 -8)"/><path class="cls-4" d="M234.87,91.5h3.69a10.34,10.34,0,0,1,2.47.26,4.6,4.6,0,0,1,1.88,1q2.18,1.86,2.18,5.69a11,11,0,0,1-.22,2.3,6.39,6.39,0,0,1-.68,1.87,5.63,5.63,0,0,1-1.17,1.5,5.45,5.45,0,0,1-1.23.81,6.16,6.16,0,0,1-1.44.43,11.27,11.27,0,0,1-1.73.12h-3.69a2.39,2.39,0,0,1-1.17-.23,1.11,1.11,0,0,1-.51-.66,4.14,4.14,0,0,1-.12-1.1V93.23a1.49,1.49,0,0,1,1.74-1.73Zm1.1,2.24v9.5h2.14a10.87,10.87,0,0,0,1.11,0,3.67,3.67,0,0,0,.83-.19,2.3,2.3,0,0,0,.75-.43c.94-.8,1.42-2.18,1.42-4.14a6.1,6.1,0,0,0-.63-3.11A2.79,2.79,0,0,0,240.05,94a7.52,7.52,0,0,0-2.21-.28Z" transform="translate(-0.11 -8)"/></g></g></g><g id="Gruppe_263" data-name="Gruppe 263"><g id="Rechteck_127" data-name="Rechteck 127"><rect class="cls-6" x="292.48" y="1.56" width="106.35" height="105.57"/><rect class="cls-2" x="292.87" y="1.96" width="105.57" height="104.79"/></g><g id="_8C6239" data-name=" 8C6239" class="cls-3"><g class="cls-3"><path class="cls-4" d="M306,103l.35-1.79q-1.32,0-1.32-1a1,1,0,0,1,.33-.77,1.39,1.39,0,0,1,1-.3h.45l.54-2.78h-1a1.42,1.42,0,0,1-1-.31,1,1,0,0,1-.34-.76,1,1,0,0,1,.33-.77,1.44,1.44,0,0,1,1-.29h1.42l.45-2.19a4.34,4.34,0,0,1,.24-.87,1,1,0,0,1,.35-.47,1,1,0,0,1,.59-.17,1,1,0,0,1,.77.27.93.93,0,0,1,.27.69c0,.06-.06.38-.17,1l-.35,1.78H312l.46-2.19a7.75,7.75,0,0,1,.18-.8,1.12,1.12,0,0,1,.31-.51.93.93,0,0,1,.66-.21,1.06,1.06,0,0,1,.76.25.91.91,0,0,1,.28.7,2.56,2.56,0,0,1,0,.39,2.2,2.2,0,0,1-.06.37c0,.12,0,.19-.05.22l-.35,1.8c.91,0,1.36.37,1.36,1.06a.94.94,0,0,1-.32.76,1.43,1.43,0,0,1-1,.29h-.49l-.57,2.78h1.06a1.38,1.38,0,0,1,1,.3,1,1,0,0,1,.32.77.94.94,0,0,1-.32.76,1.35,1.35,0,0,1-1,.29h-1.47l-.45,2.2c-.07.35-.13.62-.19.81a1.06,1.06,0,0,1-.31.5.89.89,0,0,1-.66.22,1,1,0,0,1-.75-.27.91.91,0,0,1-.28-.7,5.1,5.1,0,0,1,.13-1l.36-1.79h-2.11l-.45,2.2a5,5,0,0,1-.36,1.17c-.12.24-.39.36-.8.36a1.05,1.05,0,0,1-.76-.27,1,1,0,0,1-.28-.7,2.33,2.33,0,0,1,.06-.49Q305.95,103.22,306,103Zm5.58-6.69h-2.11l-.56,2.78H311Z" transform="translate(-0.11 -8)"/><path class="cls-4" d="M317,94.27a3.34,3.34,0,0,1,.53-1.8A3.53,3.53,0,0,1,319,91.12a5.16,5.16,0,0,1,2.36-.51,6,6,0,0,1,2,.3,3.9,3.9,0,0,1,1.43.81,3.32,3.32,0,0,1,.85,1.18,3.37,3.37,0,0,1,.28,1.38,3,3,0,0,1-.48,1.68,3.47,3.47,0,0,1-1.44,1.2,4.1,4.1,0,0,1,1.35.82,3.42,3.42,0,0,1,.8,1.19,4,4,0,0,1,.28,1.49,4.17,4.17,0,0,1-.59,2.18,3.9,3.9,0,0,1-1.71,1.54,6.05,6.05,0,0,1-2.65.55,6.2,6.2,0,0,1-2.71-.55,3.91,3.91,0,0,1-1.7-1.53,4.19,4.19,0,0,1-.57-2.17,3.5,3.5,0,0,1,2.42-3.52A3,3,0,0,1,317,94.27Zm6.85,6.31a2.57,2.57,0,0,0-.31-1.29,2,2,0,0,0-.85-.85,2.6,2.6,0,0,0-1.25-.3,2.24,2.24,0,0,0-1.63.65,2.43,2.43,0,0,0-.66,1.81,2.8,2.8,0,0,0,.31,1.32,2.16,2.16,0,0,0,.85.87,2.39,2.39,0,0,0,2.39,0,2.19,2.19,0,0,0,.84-.89A2.68,2.68,0,0,0,323.81,100.58Zm-2.39-8.15A1.92,1.92,0,0,0,320,93a1.94,1.94,0,0,0-.55,1.44,1.81,1.81,0,0,0,.56,1.35,2,2,0,0,0,1.45.54,2.18,2.18,0,0,0,.82-.15,1.86,1.86,0,0,0,.63-.39,1.75,1.75,0,0,0,.4-.6,2,2,0,0,0,.15-.77,2,2,0,0,0-.26-1,1.73,1.73,0,0,0-.71-.71A2.1,2.1,0,0,0,321.42,92.43Z" transform="translate(-0.11 -8)"/><path class="cls-4" d="M340.73,100.29a3.77,3.77,0,0,1-.33,1.45,5.36,5.36,0,0,1-1,1.52,5.25,5.25,0,0,1-1.8,1.22A6.57,6.57,0,0,1,335,105a9,9,0,0,1-2-.21,5.53,5.53,0,0,1-1.64-.66,5.14,5.14,0,0,1-1.36-1.17,6.74,6.74,0,0,1-1-1.47,7.76,7.76,0,0,1-.59-1.74,9.61,9.61,0,0,1-.19-2,8.72,8.72,0,0,1,.49-3,6.46,6.46,0,0,1,1.41-2.28A6.19,6.19,0,0,1,332.3,91a6.94,6.94,0,0,1,2.62-.49,6.62,6.62,0,0,1,3,.67,5.53,5.53,0,0,1,2,1.68,3.3,3.3,0,0,1,.71,1.88,1.21,1.21,0,0,1-.35.86,1.08,1.08,0,0,1-.83.38,1.14,1.14,0,0,1-.81-.26,3.51,3.51,0,0,1-.61-.89,4.37,4.37,0,0,0-1.3-1.56,3.22,3.22,0,0,0-1.85-.51,3.34,3.34,0,0,0-2.78,1.33,6,6,0,0,0-1,3.77,7.09,7.09,0,0,0,.46,2.71,3.49,3.49,0,0,0,1.3,1.62,3.54,3.54,0,0,0,2,.53,3.46,3.46,0,0,0,2.06-.6,3.69,3.69,0,0,0,1.28-1.78,3.15,3.15,0,0,1,.44-.9,1,1,0,0,1,.86-.35,1.22,1.22,0,0,1,.87.35A1.2,1.2,0,0,1,340.73,100.29Z" transform="translate(-0.11 -8)"/><path class="cls-4" d="M345.29,97.14A4.29,4.29,0,0,1,346.7,96a4,4,0,0,1,1.71-.37,4,4,0,0,1,3,1.3,4.34,4.34,0,0,1,.89,1.48,5.08,5.08,0,0,1,.32,1.77,4.93,4.93,0,0,1-.62,2.45,4.39,4.39,0,0,1-1.71,1.71,5.06,5.06,0,0,1-2.5.62,4.87,4.87,0,0,1-2.77-.78,4.92,4.92,0,0,1-1.78-2.32,10.07,10.07,0,0,1-.62-3.75,12.59,12.59,0,0,1,.38-3.22,6.69,6.69,0,0,1,1.07-2.36,4.4,4.4,0,0,1,1.69-1.41,5.11,5.11,0,0,1,2.26-.48,4.63,4.63,0,0,1,2.15.48,3.52,3.52,0,0,1,1.4,1.18,2.42,2.42,0,0,1,.48,1.36,1,1,0,0,1-.3.71,1,1,0,0,1-.75.32,1.24,1.24,0,0,1-.75-.26,1.39,1.39,0,0,1-.5-.7,2,2,0,0,0-.7-.92,1.86,1.86,0,0,0-1.11-.35,2,2,0,0,0-1,.29,2.75,2.75,0,0,0-.84.79A7.42,7.42,0,0,0,345.29,97.14Zm2.58,5.93a2,2,0,0,0,1.59-.79,3.21,3.21,0,0,0,.63-2.07,3.41,3.41,0,0,0-.3-1.49,2.14,2.14,0,0,0-.81-1,2,2,0,0,0-1.13-.32,2.19,2.19,0,0,0-1.13.31,2.31,2.31,0,0,0-.87.91,2.87,2.87,0,0,0-.33,1.4,3.37,3.37,0,0,0,.67,2.15A2,2,0,0,0,347.87,103.07Z" transform="translate(-0.11 -8)"/><path class="cls-4" d="M357.73,102.46h5a1.84,1.84,0,0,1,1.14.3,1,1,0,0,1,.39.83,1.12,1.12,0,0,1-.31.79,1.24,1.24,0,0,1-.94.33h-7a1.51,1.51,0,0,1-1.12-.4,1.28,1.28,0,0,1-.4-.93,2.41,2.41,0,0,1,.26-.91,3.17,3.17,0,0,1,.56-.89c.85-.88,1.61-1.63,2.3-2.26A14.24,14.24,0,0,1,359,98.08a8.82,8.82,0,0,0,1.3-1.11,4.26,4.26,0,0,0,.79-1.14,2.75,2.75,0,0,0,.27-1.15,2,2,0,0,0-1.08-1.85,2.37,2.37,0,0,0-1.09-.26,2.23,2.23,0,0,0-2,1.09,5.46,5.46,0,0,0-.32.79,3.29,3.29,0,0,1-.51,1,1,1,0,0,1-.82.34,1.06,1.06,0,0,1-.79-.31,1.17,1.17,0,0,1-.32-.86,3.5,3.5,0,0,1,.3-1.37,3.75,3.75,0,0,1,.88-1.3,4.37,4.37,0,0,1,1.49-.94,5.69,5.69,0,0,1,2.11-.36,6.07,6.07,0,0,1,2.5.46,3.71,3.71,0,0,1,1.17.84A3.89,3.89,0,0,1,364,94.62a4.06,4.06,0,0,1-.59,2.15,6.6,6.6,0,0,1-1.2,1.52c-.4.37-1.09.94-2,1.72a14,14,0,0,0-2,1.83A4.17,4.17,0,0,0,357.73,102.46Z" transform="translate(-0.11 -8)"/><path class="cls-4" d="M370.34,96.26a2.34,2.34,0,0,0,1.51-.51,1.82,1.82,0,0,0,.64-1.48A1.77,1.77,0,0,0,372,93a1.81,1.81,0,0,0-1.37-.53,2.39,2.39,0,0,0-.95.16,1.52,1.52,0,0,0-.6.43,3.15,3.15,0,0,0-.42.69c-.13.28-.25.54-.35.79a.69.69,0,0,1-.35.32,1.41,1.41,0,0,1-.57.11,1,1,0,0,1-.7-.31,1.06,1.06,0,0,1-.32-.82,2.19,2.19,0,0,1,.3-1,3.64,3.64,0,0,1,.88-1A4.2,4.2,0,0,1,369,91a5.86,5.86,0,0,1,1.92-.3,5.31,5.31,0,0,1,1.69.25,4,4,0,0,1,1.33.73A3.12,3.12,0,0,1,375,94.09a3.05,3.05,0,0,1-.41,1.64,5.36,5.36,0,0,1-1.19,1.33,5.4,5.4,0,0,1,1.26.92,3.47,3.47,0,0,1,1,2.49,4.08,4.08,0,0,1-.35,1.68,4.35,4.35,0,0,1-1,1.45,5,5,0,0,1-1.61,1,5.68,5.68,0,0,1-2.06.36,5,5,0,0,1-2.05-.41,4.75,4.75,0,0,1-1.49-1,4.45,4.45,0,0,1-.89-1.27,2.81,2.81,0,0,1-.3-1.09,1.15,1.15,0,0,1,.36-.89,1.21,1.21,0,0,1,.89-.34,1,1,0,0,1,.51.15.78.78,0,0,1,.33.38,6.31,6.31,0,0,0,1.06,2,2,2,0,0,0,1.6.65,2.41,2.41,0,0,0,1.14-.29,2.64,2.64,0,0,0,.66-4,2.27,2.27,0,0,0-1.7-.63,5.67,5.67,0,0,0-.6,0l-.51,0a1.13,1.13,0,0,1-.81-.26,1,1,0,0,1,.05-1.47,1.58,1.58,0,0,1,1-.28Z" transform="translate(-0.11 -8)"/><path class="cls-4" d="M384.56,98.44a4.36,4.36,0,0,1-1.41,1.12,3.91,3.91,0,0,1-1.72.38,4.11,4.11,0,0,1-1.68-.35,4,4,0,0,1-1.34-1,4.2,4.2,0,0,1-.87-1.46,4.89,4.89,0,0,1-.31-1.75,5,5,0,0,1,.34-1.86,4.53,4.53,0,0,1,1-1.54,4.45,4.45,0,0,1,1.52-1,5.54,5.54,0,0,1,4.15.09,4.35,4.35,0,0,1,1.62,1.3,6,6,0,0,1,1,2.15,11.06,11.06,0,0,1,.36,2.94,12.5,12.5,0,0,1-.38,3.23,6.81,6.81,0,0,1-1.08,2.35,4.43,4.43,0,0,1-1.7,1.42,5.46,5.46,0,0,1-2.26.46,4.7,4.7,0,0,1-2.15-.47,3.68,3.68,0,0,1-1.4-1.18,2.42,2.42,0,0,1-.48-1.35,1,1,0,0,1,.3-.71,1,1,0,0,1,.75-.32,1.34,1.34,0,0,1,.76.23,1.41,1.41,0,0,1,.5.71,2,2,0,0,0,.7.92,1.87,1.87,0,0,0,1.1.35,2.1,2.1,0,0,0,1-.28,2.67,2.67,0,0,0,.83-.78A7.6,7.6,0,0,0,384.56,98.44Zm-.22-2.92a4.09,4.09,0,0,0-.17-1.2,3.06,3.06,0,0,0-.5-.95,2.29,2.29,0,0,0-.76-.63,2.13,2.13,0,0,0-1-.23,1.91,1.91,0,0,0-1.54.78,3.16,3.16,0,0,0-.63,2,3.06,3.06,0,0,0,.63,2,2,2,0,0,0,1.59.75,2.22,2.22,0,0,0,1.14-.31,2.43,2.43,0,0,0,.87-.9A2.7,2.7,0,0,0,384.34,95.52Z" transform="translate(-0.11 -8)"/></g></g></g><g id="Gruppe_264" data-name="Gruppe 264"><g id="Rechteck_128" data-name="Rechteck 128"><rect class="cls-7" x="438.71" y="2.35" width="106.35" height="105.57"/><rect class="cls-2" x="439.1" y="2.74" width="105.57" height="104.79"/></g><g id="_4B2810" data-name=" 4B2810" class="cls-3"><g class="cls-3"><path class="cls-4" d="M451.65,99.88,452,98.1q-1.32,0-1.32-1a1,1,0,0,1,.33-.78,1.41,1.41,0,0,1,1-.3h.45l.55-2.78h-1a1.37,1.37,0,0,1-1-.31,1,1,0,0,1-.34-.76,1,1,0,0,1,.33-.77,1.46,1.46,0,0,1,1-.29h1.42l.45-2.18a4.34,4.34,0,0,1,.24-.87,1,1,0,0,1,.35-.48,1,1,0,0,1,.59-.16,1.09,1.09,0,0,1,.77.26.93.93,0,0,1,.27.69c0,.07-.06.39-.16,1l-.36,1.77h2.09l.46-2.18c.07-.34.13-.6.18-.81a1.12,1.12,0,0,1,.31-.51.93.93,0,0,1,.66-.21,1.06,1.06,0,0,1,.77.26.9.9,0,0,1,.27.69,2.38,2.38,0,0,1,0,.39,2.2,2.2,0,0,1-.06.37c0,.12,0,.19-.05.23l-.35,1.79c.91,0,1.37.37,1.37,1.06a1,1,0,0,1-.33.76,1.43,1.43,0,0,1-1,.29h-.49L458.82,96h1.06a1.38,1.38,0,0,1,1,.3,1,1,0,0,1,.33.78,1,1,0,0,1-.32.76,1.44,1.44,0,0,1-1,.29h-1.47l-.45,2.19c-.07.35-.13.62-.19.81a1.06,1.06,0,0,1-.31.5.89.89,0,0,1-.66.22,1,1,0,0,1-.75-.27.9.9,0,0,1-.28-.69,4.5,4.5,0,0,1,.14-1l.35-1.78h-2.11l-.45,2.19a4.54,4.54,0,0,1-.36,1.17.8.8,0,0,1-.79.36,1.06,1.06,0,0,1-.77-.27.94.94,0,0,1-.28-.69,2.41,2.41,0,0,1,.06-.5Q451.6,100.09,451.65,99.88Zm5.58-6.69h-2.11L454.56,96h2.13Z" transform="translate(-0.11 -8)"/><path class="cls-4" d="M468.16,100.37V98.59h-4.79a1.94,1.94,0,0,1-1.36-.41,1.42,1.42,0,0,1-.45-1.11,1.15,1.15,0,0,1,.06-.37,2.4,2.4,0,0,1,.2-.39c.09-.14.19-.27.28-.4l.35-.47,5.06-6.77a8,8,0,0,1,.82-1,1.09,1.09,0,0,1,.77-.31c1,0,1.45.56,1.45,1.67v7.38H471a2.8,2.8,0,0,1,1.18.21c.3.13.44.42.44.87a.92.92,0,0,1-.36.81,1.89,1.89,0,0,1-1.09.25h-.58v1.78a1.61,1.61,0,0,1-.32,1.09,1.12,1.12,0,0,1-.87.36,1.1,1.1,0,0,1-.87-.37A1.55,1.55,0,0,1,468.16,100.37Zm-4.1-3.92h4.1V90.91Z" transform="translate(-0.11 -8)"/><path class="cls-4" d="M480.44,101.58h-4.28a1.8,1.8,0,0,1-1.32-.41,1.9,1.9,0,0,1-.4-1.33V89.32a1.84,1.84,0,0,1,.41-1.33,1.8,1.8,0,0,1,1.31-.4h4.54a10.82,10.82,0,0,1,1.73.12,3.6,3.6,0,0,1,1.32.48,3.31,3.31,0,0,1,.88.75,3.32,3.32,0,0,1-1.32,5.23,3.42,3.42,0,0,1,2.76,3.42,3.88,3.88,0,0,1-.6,2.12,3.63,3.63,0,0,1-1.62,1.38,5.64,5.64,0,0,1-1.47.38A15.66,15.66,0,0,1,480.44,101.58Zm-3.16-11.86v3.61h2.6a5,5,0,0,0,1.63-.2,1.58,1.58,0,0,0,.89-.76,1.72,1.72,0,0,0,.23-.9,1.41,1.41,0,0,0-.75-1.41,5.82,5.82,0,0,0-2.3-.34Zm3,5.65h-3v4.08h3q2.88,0,2.88-2.07a1.69,1.69,0,0,0-.75-1.54A4.22,4.22,0,0,0,480.23,95.37Z" transform="translate(-0.11 -8)"/><path class="cls-4" d="M491.36,99.33h5a1.84,1.84,0,0,1,1.14.3,1,1,0,0,1,.39.83,1.1,1.1,0,0,1-.31.8,1.27,1.27,0,0,1-.94.32h-7a1.52,1.52,0,0,1-1.11-.39,1.28,1.28,0,0,1-.4-.94,2.36,2.36,0,0,1,.25-.91,3.34,3.34,0,0,1,.57-.89c.84-.88,1.61-1.63,2.29-2.26A14.88,14.88,0,0,1,492.65,95a7.85,7.85,0,0,0,1.3-1.12,4.26,4.26,0,0,0,.79-1.14,2.63,2.63,0,0,0,.28-1.15,2.09,2.09,0,0,0-.29-1.09,1.93,1.93,0,0,0-.8-.75,2.26,2.26,0,0,0-1.09-.27,2.23,2.23,0,0,0-2,1.1,4.69,4.69,0,0,0-.32.78,3.18,3.18,0,0,1-.5,1,1,1,0,0,1-.83.35,1.07,1.07,0,0,1-.79-.32,1.17,1.17,0,0,1-.32-.86,3.5,3.5,0,0,1,.3-1.37,4,4,0,0,1,.88-1.3,4.37,4.37,0,0,1,1.49-.94,5.7,5.7,0,0,1,2.12-.36,6.05,6.05,0,0,1,2.49.46,3.6,3.6,0,0,1,1.17.84,3.92,3.92,0,0,1,.79,1.24,3.78,3.78,0,0,1,.28,1.45,4.05,4.05,0,0,1-.58,2.15,6.94,6.94,0,0,1-1.2,1.52c-.41.37-1.09.94-2.05,1.72a14.66,14.66,0,0,0-2,1.83A5.86,5.86,0,0,0,491.36,99.33Z" transform="translate(-0.11 -8)"/><path class="cls-4" d="M499.92,91.14a3.42,3.42,0,0,1,.52-1.8A3.61,3.61,0,0,1,502,88a5.15,5.15,0,0,1,2.35-.51,6.06,6.06,0,0,1,2,.3,4.05,4.05,0,0,1,1.43.81,3.32,3.32,0,0,1,.85,1.18,3.59,3.59,0,0,1,.28,1.39,3,3,0,0,1-.48,1.67A3.53,3.53,0,0,1,507,94a4,4,0,0,1,1.34.83,3.28,3.28,0,0,1,.81,1.18,4,4,0,0,1,.27,1.49,4.13,4.13,0,0,1-.58,2.18,4,4,0,0,1-1.71,1.54,5.92,5.92,0,0,1-2.65.55,6.06,6.06,0,0,1-2.71-.55,3.91,3.91,0,0,1-1.7-1.53,4.19,4.19,0,0,1-.57-2.17A3.5,3.5,0,0,1,501.88,94,3,3,0,0,1,499.92,91.14Zm6.85,6.32a2.58,2.58,0,0,0-.31-1.3,2.07,2.07,0,0,0-.86-.85,2.56,2.56,0,0,0-1.24-.3,2.24,2.24,0,0,0-1.63.65,2.45,2.45,0,0,0-.66,1.82,2.67,2.67,0,0,0,.31,1.31,2.25,2.25,0,0,0,.85.88,2.37,2.37,0,0,0,1.19.31,2.32,2.32,0,0,0,1.2-.32,2.13,2.13,0,0,0,.84-.89A2.67,2.67,0,0,0,506.77,97.46Zm-2.39-8.16a1.92,1.92,0,0,0-1.44.56,2,2,0,0,0-.55,1.44,1.77,1.77,0,0,0,.56,1.35,2,2,0,0,0,1.45.54,2.39,2.39,0,0,0,.82-.14,2.05,2.05,0,0,0,.63-.4,1.75,1.75,0,0,0,.4-.6,1.92,1.92,0,0,0,.15-.77,2,2,0,0,0-.26-1,1.8,1.8,0,0,0-.71-.71A2.1,2.1,0,0,0,504.38,89.3Z" transform="translate(-0.11 -8)"/><path class="cls-4" d="M515.75,100.27V91.59c-1.62,1.24-2.7,1.86-3.26,1.86a1,1,0,0,1-.71-.32,1,1,0,0,1-.32-.74.85.85,0,0,1,.31-.72,6.53,6.53,0,0,1,1.08-.59,7.86,7.86,0,0,0,1.85-1.15,7.74,7.74,0,0,0,1.22-1.34c.36-.5.59-.8.7-.92a.85.85,0,0,1,.61-.17,1,1,0,0,1,.81.39,1.67,1.67,0,0,1,.31,1.08V99.9c0,1.28-.44,1.92-1.31,1.92a1.21,1.21,0,0,1-.94-.39A1.71,1.71,0,0,1,515.75,100.27Z" transform="translate(-0.11 -8)"/><path class="cls-4" d="M532.54,94.72a16.08,16.08,0,0,1-.19,2.69,6.17,6.17,0,0,1-.71,2,4.69,4.69,0,0,1-1.68,1.74,4.56,4.56,0,0,1-4.89-.21,5,5,0,0,1-1.73-2.27A8.78,8.78,0,0,1,522.9,97a15.07,15.07,0,0,1-.13-2.08,20.37,20.37,0,0,1,.15-2.6,8.21,8.21,0,0,1,.48-2,4.25,4.25,0,0,1,4.2-2.82,4.82,4.82,0,0,1,1.78.32,4,4,0,0,1,1.41.94,5.34,5.34,0,0,1,1,1.52A11,11,0,0,1,532.54,94.72Zm-2.61-.19a15.86,15.86,0,0,0-.21-2.86A3.54,3.54,0,0,0,529,90a1.72,1.72,0,0,0-1.37-.57,1.77,1.77,0,0,0-1.76,1.27,11.78,11.78,0,0,0-.49,3.91,16.77,16.77,0,0,0,.21,2.94,3.75,3.75,0,0,0,.71,1.74,1.85,1.85,0,0,0,2.72,0,3.88,3.88,0,0,0,.7-1.75A18.1,18.1,0,0,0,529.93,94.53Z" transform="translate(-0.11 -8)"/></g></g></g><g id="Gruppe_265" data-name="Gruppe 265"><g id="Rechteck_126" data-name="Rechteck 126"><rect class="cls-8" x="584.95" y="2.35" width="106.35" height="106.35"/><rect class="cls-2" x="585.34" y="2.74" width="105.57" height="105.57"/></g><g id="_F7E434" data-name=" F7E434" class="cls-3"><g class="cls-3"><path class="cls-4" d="M596.74,102.23l.35-1.79q-1.32,0-1.32-1a1,1,0,0,1,.33-.77,1.39,1.39,0,0,1,1-.31h.45l.54-2.77h-1a1.42,1.42,0,0,1-1-.31,1,1,0,0,1-.34-.76,1,1,0,0,1,.33-.77,1.39,1.39,0,0,1,1-.29h1.42l.45-2.19a4.34,4.34,0,0,1,.24-.87.94.94,0,0,1,.94-.64,1,1,0,0,1,.77.27.93.93,0,0,1,.27.69c0,.06-.06.38-.17,1l-.35,1.78h2.09l.46-2.19a7.75,7.75,0,0,1,.18-.8,1.15,1.15,0,0,1,.31-.52.93.93,0,0,1,.66-.21,1.06,1.06,0,0,1,.76.26.93.93,0,0,1,.28.7,2.56,2.56,0,0,1,0,.39,2.2,2.2,0,0,1-.06.37c0,.12,0,.19,0,.22l-.35,1.8c.91,0,1.36.37,1.36,1.06a1,1,0,0,1-.32.76,1.43,1.43,0,0,1-1,.29h-.49l-.57,2.77H605a1.38,1.38,0,0,1,1,.31,1,1,0,0,1,.32.77.94.94,0,0,1-.32.76,1.35,1.35,0,0,1-1,.29H603.5l-.45,2.2c-.07.35-.14.62-.19.81a1.06,1.06,0,0,1-.31.5.94.94,0,0,1-.66.22,1,1,0,0,1-.75-.27.91.91,0,0,1-.28-.7,4.4,4.4,0,0,1,.13-1l.36-1.79h-2.11l-.45,2.2a5,5,0,0,1-.36,1.17c-.12.24-.39.36-.8.36a1,1,0,0,1-.76-.27,1,1,0,0,1-.28-.7,2.33,2.33,0,0,1,.06-.49Q596.69,102.44,596.74,102.23Zm5.58-6.69h-2.11l-.56,2.77h2.13Z" transform="translate(-0.11 -8)"/><path class="cls-4" d="M616.3,92.12h-5.59V95.7h4.67a1.42,1.42,0,0,1,1,.29,1,1,0,0,1,.32.78,1,1,0,0,1-.33.77,1.39,1.39,0,0,1-1,.29h-4.67v4.61a1.87,1.87,0,0,1-.39,1.3,1.44,1.44,0,0,1-2.05,0,1.89,1.89,0,0,1-.39-1.3V91.67a2.39,2.39,0,0,1,.18-1,1.15,1.15,0,0,1,.57-.56,2.29,2.29,0,0,1,1-.18h6.69a1.44,1.44,0,0,1,1,.3,1.12,1.12,0,0,1,0,1.59A1.44,1.44,0,0,1,616.3,92.12Z" transform="translate(-0.11 -8)"/><path class="cls-4" d="M621.26,90.07h6.36a2.35,2.35,0,0,1,1.32.28,1.07,1.07,0,0,1,.42,1,2,2,0,0,1-.49,1.06c-.32.44-.68.92-1.09,1.45a16.31,16.31,0,0,0-1.27,2,15.77,15.77,0,0,0-1.2,2.9c-.15.5-.26.92-.33,1.25s-.13.76-.21,1.29-.14.93-.2,1.21a2.77,2.77,0,0,1-.56,1.35,1.33,1.33,0,0,1-1,.38,1.2,1.2,0,0,1-.94-.41,1.81,1.81,0,0,1-.35-1.2,7,7,0,0,1,.26-1.66,18.86,18.86,0,0,1,.84-2.51,23.49,23.49,0,0,1,1.45-3,24.44,24.44,0,0,1,2.08-3.07h-5.11a2.08,2.08,0,0,1-1.2-.29,1.07,1.07,0,0,1-.39-.91.83.83,0,0,1,.42-.85A2.85,2.85,0,0,1,621.26,90.07Z" transform="translate(-0.11 -8)"/><path class="cls-4" d="M640.58,92.12H634.2v3.44h5.88a1.39,1.39,0,0,1,1,.29,1,1,0,0,1,.32.77,1,1,0,0,1-.32.77,1.36,1.36,0,0,1-1,.3H634.2v4h6.6a1.49,1.49,0,0,1,1,.31,1.11,1.11,0,0,1,.34.83,1.08,1.08,0,0,1-.34.81,1.49,1.49,0,0,1-1,.31h-7.7a1.82,1.82,0,0,1-1.33-.41,1.86,1.86,0,0,1-.41-1.33V91.67a2.39,2.39,0,0,1,.18-1,1.15,1.15,0,0,1,.57-.56,2.37,2.37,0,0,1,1-.18h7.48a1.47,1.47,0,0,1,1,.3,1.12,1.12,0,0,1,0,1.59A1.47,1.47,0,0,1,640.58,92.12Z" transform="translate(-0.11 -8)"/><path class="cls-4" d="M649.72,102.72v-1.78h-4.79a2,2,0,0,1-1.36-.41,1.41,1.41,0,0,1-.46-1.12,1,1,0,0,1,.07-.37,1.81,1.81,0,0,1,.2-.39c.09-.13.18-.27.28-.39l.35-.47L649.07,91a8.43,8.43,0,0,1,.81-1,1.1,1.1,0,0,1,.77-.3c1,0,1.45.56,1.45,1.66V98.8h.41a3,3,0,0,1,1.18.2.87.87,0,0,1,.45.88.91.91,0,0,1-.37.81,1.87,1.87,0,0,1-1.08.25h-.59v1.78a1.56,1.56,0,0,1-.32,1.09,1.12,1.12,0,0,1-.87.36,1.11,1.11,0,0,1-.86-.37A1.59,1.59,0,0,1,649.72,102.72Zm-4.11-3.92h4.11V93.26Z" transform="translate(-0.11 -8)"/><path class="cls-4" d="M659.85,95.48a2.29,2.29,0,0,0,1.51-.52,1.79,1.79,0,0,0,.63-1.48,1.73,1.73,0,0,0-.5-1.26,1.81,1.81,0,0,0-1.37-.53,2.41,2.41,0,0,0-1,.16,1.48,1.48,0,0,0-.59.43,3.15,3.15,0,0,0-.42.69l-.36.79a.67.67,0,0,1-.34.32,1.48,1.48,0,0,1-.57.11,1,1,0,0,1-.7-.31,1.08,1.08,0,0,1-.32-.83,2.18,2.18,0,0,1,.3-1A3.8,3.8,0,0,1,657,91a4.51,4.51,0,0,1,1.44-.79,5.77,5.77,0,0,1,1.92-.3,5.31,5.31,0,0,1,1.69.25,4,4,0,0,1,1.33.73,3.12,3.12,0,0,1,1.13,2.46,3.17,3.17,0,0,1-.41,1.64,5.76,5.76,0,0,1-1.19,1.33,5.06,5.06,0,0,1,1.25.92,3.43,3.43,0,0,1,.77,1.14,3.57,3.57,0,0,1,.26,1.35,4.25,4.25,0,0,1-.35,1.68,4.35,4.35,0,0,1-1,1.45,5.06,5.06,0,0,1-1.61,1,5.68,5.68,0,0,1-2.06.36,5,5,0,0,1-2-.41,4.92,4.92,0,0,1-1.5-1,4.77,4.77,0,0,1-.88-1.27,2.81,2.81,0,0,1-.3-1.09,1.22,1.22,0,0,1,.35-.9,1.28,1.28,0,0,1,.9-.33,1,1,0,0,1,.51.15.79.79,0,0,1,.33.38,6.43,6.43,0,0,0,1.06,2,2,2,0,0,0,1.6.65,2.37,2.37,0,0,0,1.14-.3,2.34,2.34,0,0,0,.91-.86,2.72,2.72,0,0,0-.26-3.08,2.24,2.24,0,0,0-1.7-.63,5.68,5.68,0,0,0-.59,0l-.51,0a1.13,1.13,0,0,1-.81-.26.94.94,0,0,1-.29-.73.91.91,0,0,1,.34-.74,1.57,1.57,0,0,1,1-.28Z" transform="translate(-0.11 -8)"/><path class="cls-4" d="M673,102.72v-1.78h-4.79a2,2,0,0,1-1.36-.41,1.44,1.44,0,0,1-.45-1.12,1.24,1.24,0,0,1,.06-.37,3.64,3.64,0,0,1,.2-.39l.28-.39.35-.47L672.3,91a8.31,8.31,0,0,1,.82-1,1.08,1.08,0,0,1,.77-.3c1,0,1.45.56,1.45,1.66V98.8h.41a3,3,0,0,1,1.18.2.88.88,0,0,1,.44.88.92.92,0,0,1-.36.81,1.91,1.91,0,0,1-1.09.25h-.58v1.78a1.56,1.56,0,0,1-.33,1.09,1.09,1.09,0,0,1-.86.36,1.13,1.13,0,0,1-.87-.37A1.59,1.59,0,0,1,673,102.72Zm-4.1-3.92H673V93.26Z" transform="translate(-0.11 -8)"/></g></g></g><g id="Gruppe_266" data-name="Gruppe 266"><g id="Rechteck_125" data-name="Rechteck 125"><rect class="cls-9" x="731.19" y="1.56" width="106.35" height="106.35"/><rect class="cls-2" x="731.58" y="1.96" width="105.57" height="105.57"/></g><g id="_518ED6" data-name=" 518ED6" class="cls-3"><g class="cls-3"><path class="cls-4" d="M745.55,99.88l.36-1.78q-1.32,0-1.32-1a1,1,0,0,1,.33-.78,1.39,1.39,0,0,1,1-.3h.45l.54-2.78h-1a1.34,1.34,0,0,1-1-.31,1,1,0,0,1,0-1.53,1.44,1.44,0,0,1,1-.29h1.42l.45-2.18A5.26,5.26,0,0,1,748,88a1.13,1.13,0,0,1,.36-.48.93.93,0,0,1,.58-.16,1.1,1.1,0,0,1,.78.26,1,1,0,0,1,.26.69c0,.07-.05.39-.16,1l-.35,1.77h2.09l.46-2.18a8,8,0,0,1,.18-.81,1,1,0,0,1,.31-.51.92.92,0,0,1,.65-.21,1,1,0,0,1,.77.26.9.9,0,0,1,.27.69c0,.14,0,.27,0,.39l-.06.37c0,.12,0,.19-.05.23l-.35,1.79c.91,0,1.36.37,1.36,1.06a1,1,0,0,1-.32.76,1.44,1.44,0,0,1-1,.29h-.49L752.72,96h1.06a1.39,1.39,0,0,1,1,.3,1,1,0,0,1,.32.78,1,1,0,0,1-.32.76,1.42,1.42,0,0,1-1,.29h-1.47l-.45,2.19q-.11.52-.18.81a1.14,1.14,0,0,1-.31.5.92.92,0,0,1-.66.22,1.05,1.05,0,0,1-.76-.27.93.93,0,0,1-.27-.69,4.41,4.41,0,0,1,.13-1l.35-1.78h-2.11l-.44,2.19a5.5,5.5,0,0,1-.36,1.17.82.82,0,0,1-.8.36,1,1,0,0,1-.76-.27.9.9,0,0,1-.28-.69,3.24,3.24,0,0,1,.05-.5Q745.52,100.09,745.55,99.88Zm5.59-6.69H749L748.46,96h2.13Z" transform="translate(-0.11 -8)"/><path class="cls-4" d="M764.27,89.94h-4.53l-.55,3.1a5.33,5.33,0,0,1,2.51-.73,4.25,4.25,0,0,1,1.71.35,4.19,4.19,0,0,1,1.4,1,4.39,4.39,0,0,1,.94,1.43,4.64,4.64,0,0,1,.35,1.79,5.23,5.23,0,0,1-.62,2.52,4.62,4.62,0,0,1-1.79,1.8,5.3,5.3,0,0,1-2.7.67,5.38,5.38,0,0,1-2.77-.63,3.85,3.85,0,0,1-1.51-1.45,3,3,0,0,1-.45-1.42,1.06,1.06,0,0,1,.31-.71,1,1,0,0,1,.78-.33,1.28,1.28,0,0,1,1.2.92,3.07,3.07,0,0,0,1,1.32A2.36,2.36,0,0,0,761,100a2.19,2.19,0,0,0,1.29-.39,2.4,2.4,0,0,0,.85-1,3.63,3.63,0,0,0,.3-1.51,3.57,3.57,0,0,0-.32-1.57,2.36,2.36,0,0,0-.87-1,2.4,2.4,0,0,0-1.21-.32,2.6,2.6,0,0,0-1.18.2c-.23.14-.57.37-1,.7a2,2,0,0,1-1.09.51,1.21,1.21,0,0,1-.83-.34,1.05,1.05,0,0,1-.36-.77s0-.25.1-.65l.81-4.57a2.16,2.16,0,0,1,.49-1.2,1.64,1.64,0,0,1,1.19-.37h5c1,0,1.48.38,1.48,1.14a1,1,0,0,1-.36.8A1.64,1.64,0,0,1,764.27,89.94Z" transform="translate(-0.11 -8)"/><path class="cls-4" d="M772.36,100.27V91.59q-2.43,1.86-3.27,1.86a1,1,0,0,1-.71-.32,1.07,1.07,0,0,1-.31-.74.82.82,0,0,1,.31-.72,6.53,6.53,0,0,1,1.08-.59,7.58,7.58,0,0,0,1.84-1.15,7.8,7.8,0,0,0,1.23-1.34c.36-.5.59-.8.7-.92a.85.85,0,0,1,.61-.17,1,1,0,0,1,.81.39A1.73,1.73,0,0,1,775,89V99.9c0,1.28-.44,1.92-1.31,1.92a1.21,1.21,0,0,1-.94-.39A1.71,1.71,0,0,1,772.36,100.27Z" transform="translate(-0.11 -8)"/><path class="cls-4" d="M779.77,91.14a3.33,3.33,0,0,1,.52-1.8A3.53,3.53,0,0,1,781.81,88a5.16,5.16,0,0,1,2.36-.51,6,6,0,0,1,2,.3,4.05,4.05,0,0,1,1.43.81,3.2,3.2,0,0,1,.85,1.18,3.42,3.42,0,0,1,.28,1.39,3,3,0,0,1-.48,1.67A3.47,3.47,0,0,1,786.8,94a4.12,4.12,0,0,1,1.35.83A3.38,3.38,0,0,1,789,96a3.8,3.8,0,0,1,.28,1.49,4.14,4.14,0,0,1-.59,2.18,3.87,3.87,0,0,1-1.7,1.54,6,6,0,0,1-2.66.55,6.09,6.09,0,0,1-2.71-.55,3.91,3.91,0,0,1-1.7-1.53,4.19,4.19,0,0,1-.57-2.17A3.51,3.51,0,0,1,781.72,94,3,3,0,0,1,779.77,91.14Zm6.84,6.32a2.68,2.68,0,0,0-.3-1.3,2.13,2.13,0,0,0-.86-.85,2.58,2.58,0,0,0-1.24-.3,2.26,2.26,0,0,0-1.64.65,2.45,2.45,0,0,0-.66,1.82,2.78,2.78,0,0,0,.31,1.31,2.25,2.25,0,0,0,.85.88,2.4,2.4,0,0,0,1.19.31,2.35,2.35,0,0,0,1.21-.32,2.26,2.26,0,0,0,.84-.89A2.78,2.78,0,0,0,786.61,97.46Zm-2.39-8.16a1.94,1.94,0,0,0-1.44.56,2,2,0,0,0-.55,1.44,1.81,1.81,0,0,0,.56,1.35,2,2,0,0,0,1.45.54,2.35,2.35,0,0,0,.82-.14,2.05,2.05,0,0,0,.63-.4,1.94,1.94,0,0,0,.41-.6,2.17,2.17,0,0,0-.11-1.78,1.86,1.86,0,0,0-.71-.71A2.16,2.16,0,0,0,784.22,89.3Z" transform="translate(-0.11 -8)"/><path class="cls-4" d="M800.82,89.77h-6.38v3.44h5.88a1.44,1.44,0,0,1,1,.29,1,1,0,0,1,.32.77,1,1,0,0,1-.32.78,1.36,1.36,0,0,1-1,.3h-5.88v4H801a1.42,1.42,0,0,1,1,.31,1.15,1.15,0,0,1,0,1.63,1.42,1.42,0,0,1-1,.31h-7.7a1.49,1.49,0,0,1-1.74-1.74V89.32a2.34,2.34,0,0,1,.18-1,1.13,1.13,0,0,1,.57-.57,2.55,2.55,0,0,1,1-.17h7.48a1.45,1.45,0,0,1,1,.3,1,1,0,0,1,.33.78,1,1,0,0,1-.33.8A1.45,1.45,0,0,1,800.82,89.77Z" transform="translate(-0.11 -8)"/><path class="cls-4" d="M806.4,87.59h3.69a10.43,10.43,0,0,1,2.48.26,4.63,4.63,0,0,1,1.87,1c1.46,1.24,2.18,3.14,2.18,5.69a11,11,0,0,1-.22,2.3,6.68,6.68,0,0,1-.67,1.87,5.88,5.88,0,0,1-1.18,1.5,5,5,0,0,1-1.23.81,5.89,5.89,0,0,1-1.44.43,11.27,11.27,0,0,1-1.73.12h-3.69a2.39,2.39,0,0,1-1.17-.23,1.11,1.11,0,0,1-.51-.66,4.14,4.14,0,0,1-.12-1.1V89.32a1.49,1.49,0,0,1,1.74-1.73Zm1.1,2.24v9.5h2.15a10.65,10.65,0,0,0,1.1,0,3.67,3.67,0,0,0,.83-.19,2.3,2.3,0,0,0,.75-.43c.95-.8,1.42-2.18,1.42-4.14a6.1,6.1,0,0,0-.63-3.11,2.79,2.79,0,0,0-1.54-1.31,7.52,7.52,0,0,0-2.21-.28Z" transform="translate(-0.11 -8)"/><path class="cls-4" d="M821.13,94a4.25,4.25,0,0,1,1.41-1.14,3.84,3.84,0,0,1,1.71-.38,4.24,4.24,0,0,1,1.68.34,4,4,0,0,1,1.34,1,4.22,4.22,0,0,1,.9,1.47,5.09,5.09,0,0,1,.31,1.78,4.81,4.81,0,0,1-.62,2.44,4.39,4.39,0,0,1-1.71,1.71,5.06,5.06,0,0,1-2.5.62,4.87,4.87,0,0,1-2.77-.78,4.93,4.93,0,0,1-1.78-2.32,10.07,10.07,0,0,1-.61-3.74,12.69,12.69,0,0,1,.37-3.23,6.69,6.69,0,0,1,1.07-2.36A4.49,4.49,0,0,1,821.62,88a5.11,5.11,0,0,1,2.26-.48A4.63,4.63,0,0,1,826,88a3.71,3.71,0,0,1,1.41,1.18,2.48,2.48,0,0,1,.47,1.36,1,1,0,0,1-.3.71,1,1,0,0,1-.75.32,1.24,1.24,0,0,1-.75-.26,1.41,1.41,0,0,1-.5-.7,2,2,0,0,0-.7-.92,1.86,1.86,0,0,0-1.11-.35,2,2,0,0,0-1,.29,2.67,2.67,0,0,0-.85.79A7.42,7.42,0,0,0,821.13,94Zm2.58,5.93a1.94,1.94,0,0,0,1.59-.79,3.2,3.2,0,0,0,.63-2.07,3.6,3.6,0,0,0-.29-1.49,2.19,2.19,0,0,0-.82-1,2,2,0,0,0-1.13-.33,2.19,2.19,0,0,0-1.13.31,2.38,2.38,0,0,0-.87.91,2.87,2.87,0,0,0-.33,1.4,3.37,3.37,0,0,0,.67,2.15A2,2,0,0,0,823.71,99.94Z" transform="translate(-0.11 -8)"/></g></g></g><g id="Gruppe_267" data-name="Gruppe 267"><g id="Rechteck_131" data-name="Rechteck 131"><rect class="cls-10" x="877.43" width="105.57" height="106.35"/><rect class="cls-2" x="877.82" y="0.39" width="104.79" height="105.57"/></g><g id="_235C2E" data-name=" 235C2E" class="cls-3"><g class="cls-3"><path class="cls-4" d="M887.88,99.88l.35-1.78c-.87,0-1.31-.37-1.31-1a1,1,0,0,1,.33-.78,1.36,1.36,0,0,1,1-.3h.45l.55-2.78h-1a1.37,1.37,0,0,1-1-.31,1,1,0,0,1-.33-.76,1,1,0,0,1,.33-.77,1.41,1.41,0,0,1,1-.29h1.43l.45-2.18a3.82,3.82,0,0,1,.23-.87,1,1,0,0,1,.35-.48,1,1,0,0,1,.59-.16,1.07,1.07,0,0,1,.77.26.93.93,0,0,1,.27.69c0,.07,0,.39-.16,1l-.36,1.77h2.1l.45-2.18c.07-.34.13-.6.19-.81a1.1,1.1,0,0,1,.3-.51.93.93,0,0,1,.66-.21,1,1,0,0,1,.77.26.9.9,0,0,1,.27.69c0,.14,0,.27,0,.39s0,.25-.07.37,0,.19,0,.23L896,91.08c.91,0,1.37.37,1.37,1.06a1,1,0,0,1-.33.76,1.39,1.39,0,0,1-1,.29h-.49L895.05,96h1.06a1.35,1.35,0,0,1,1,.3,1,1,0,0,1,.33.78,1,1,0,0,1-.32.76,1.44,1.44,0,0,1-1,.29h-1.47l-.45,2.19c-.07.35-.13.62-.19.81a1,1,0,0,1-.31.5.89.89,0,0,1-.66.22,1,1,0,0,1-.75-.27.94.94,0,0,1-.28-.69,4.5,4.5,0,0,1,.14-1l.35-1.78h-2.11l-.45,2.19a4.54,4.54,0,0,1-.36,1.17c-.12.24-.38.36-.79.36a1.06,1.06,0,0,1-.77-.27.93.93,0,0,1-.27-.69,2.35,2.35,0,0,1,0-.5C887.82,100.18,887.86,100,887.88,99.88Zm5.58-6.69h-2.1L890.79,96h2.13Z" transform="translate(-0.11 -8)"/><path class="cls-4" d="M901.91,99.33h5a1.83,1.83,0,0,1,1.13.3,1,1,0,0,1,.39.83,1.1,1.1,0,0,1-.31.8,1.26,1.26,0,0,1-.94.32h-7a1.54,1.54,0,0,1-1.12-.39,1.28,1.28,0,0,1-.4-.94,2.41,2.41,0,0,1,.26-.91,3.33,3.33,0,0,1,.56-.89c.85-.88,1.61-1.63,2.29-2.26A14.88,14.88,0,0,1,903.2,95a7.85,7.85,0,0,0,1.3-1.12,4.31,4.31,0,0,0,.8-1.14,2.75,2.75,0,0,0,.27-1.15,2.09,2.09,0,0,0-.29-1.09,2,2,0,0,0-.79-.75,2.3,2.3,0,0,0-1.1-.27,2.2,2.2,0,0,0-2,1.1,3.91,3.91,0,0,0-.32.78,3.17,3.17,0,0,1-.51,1,1,1,0,0,1-.82.35,1.09,1.09,0,0,1-.8-.32,1.16,1.16,0,0,1-.31-.86A3.67,3.67,0,0,1,899,90.1a3.87,3.87,0,0,1,.89-1.3,4.27,4.27,0,0,1,1.49-.94,5.65,5.65,0,0,1,2.11-.36,6.05,6.05,0,0,1,2.49.46,3.64,3.64,0,0,1,1.18.84A3.89,3.89,0,0,1,907.9,90a3.79,3.79,0,0,1,.29,1.45,4.06,4.06,0,0,1-.59,2.15,6.39,6.39,0,0,1-1.2,1.52c-.41.37-1.09.94-2,1.72a15.33,15.33,0,0,0-2,1.83A5.86,5.86,0,0,0,901.91,99.33Z" transform="translate(-0.11 -8)"/><path class="cls-4" d="M914.52,93.13a2.36,2.36,0,0,0,1.52-.51,1.85,1.85,0,0,0-1.24-3.28,2.39,2.39,0,0,0-1,.17,1.58,1.58,0,0,0-.6.42,3.59,3.59,0,0,0-.41.69l-.36.79a.67.67,0,0,1-.34.32,1.32,1.32,0,0,1-.57.11,1,1,0,0,1-.71-.31,1.09,1.09,0,0,1-.32-.82,2.22,2.22,0,0,1,.3-1,4,4,0,0,1,.88-1,4.53,4.53,0,0,1,1.44-.8,5.77,5.77,0,0,1,1.92-.3,5.31,5.31,0,0,1,1.69.25,3.85,3.85,0,0,1,1.32.73,3.32,3.32,0,0,1,.73,4.1,5.57,5.57,0,0,1-1.19,1.33,5.55,5.55,0,0,1,1.25.92,3.43,3.43,0,0,1,1,2.49,4.25,4.25,0,0,1-.35,1.68,4.15,4.15,0,0,1-1,1.45,4.91,4.91,0,0,1-1.6,1,5.71,5.71,0,0,1-2.06.36,4.94,4.94,0,0,1-2.05-.41,4.74,4.74,0,0,1-2.39-2.3,2.77,2.77,0,0,1-.3-1.09,1.15,1.15,0,0,1,.36-.89,1.24,1.24,0,0,1,.89-.34.93.93,0,0,1,.52.16.75.75,0,0,1,.32.37,6.19,6.19,0,0,0,1.07,2,2,2,0,0,0,1.6.65,2.47,2.47,0,0,0,1.14-.29,2.34,2.34,0,0,0,.9-.87,2.42,2.42,0,0,0,.36-1.32,2.39,2.39,0,0,0-.61-1.75,2.22,2.22,0,0,0-1.7-.64,5.68,5.68,0,0,0-.59,0l-.52,0a1.15,1.15,0,0,1-.81-.27,1,1,0,0,1,.06-1.47,1.63,1.63,0,0,1,1-.28Z" transform="translate(-0.11 -8)"/><path class="cls-4" d="M929.84,89.94H925.3l-.54,3.1a5.26,5.26,0,0,1,2.5-.73,4.25,4.25,0,0,1,1.71.35,4.19,4.19,0,0,1,1.4,1,4.42,4.42,0,0,1,1,1.43,4.83,4.83,0,0,1,.34,1.79,5.23,5.23,0,0,1-.62,2.52,4.62,4.62,0,0,1-1.79,1.8,5.3,5.3,0,0,1-2.7.67,5.38,5.38,0,0,1-2.77-.63,3.92,3.92,0,0,1-1.51-1.45,3,3,0,0,1-.44-1.42,1,1,0,0,1,.31-.71,1,1,0,0,1,.77-.33,1.27,1.27,0,0,1,1.2.92,3.15,3.15,0,0,0,1,1.32,2.38,2.38,0,0,0,1.45.48,2.19,2.19,0,0,0,1.29-.39,2.4,2.4,0,0,0,.85-1,3.63,3.63,0,0,0,.3-1.51,3.44,3.44,0,0,0-.32-1.57,2.23,2.23,0,0,0-2.08-1.29,2.6,2.6,0,0,0-1.18.2c-.23.14-.57.37-1,.7a2,2,0,0,1-1.1.51,1.23,1.23,0,0,1-.83-.34,1.05,1.05,0,0,1-.36-.77s0-.25.11-.65l.8-4.57a2.23,2.23,0,0,1,.49-1.2,1.66,1.66,0,0,1,1.19-.37h5c1,0,1.49.38,1.49,1.14a1,1,0,0,1-.37.8A1.61,1.61,0,0,1,929.84,89.94Z" transform="translate(-0.11 -8)"/><path class="cls-4" d="M945.85,97.16a3.73,3.73,0,0,1-.33,1.45,5.05,5.05,0,0,1-1,1.52,5.2,5.2,0,0,1-1.81,1.22,6.48,6.48,0,0,1-2.55.47,9,9,0,0,1-2-.21,6,6,0,0,1-1.65-.65,5.92,5.92,0,0,1-1.36-1.17,6.78,6.78,0,0,1-.94-1.48,7.59,7.59,0,0,1-.59-1.74,9.54,9.54,0,0,1-.19-2,8.66,8.66,0,0,1,.49-3,6.5,6.5,0,0,1,1.41-2.29,6.29,6.29,0,0,1,2.14-1.45,7,7,0,0,1,2.63-.49,6.5,6.5,0,0,1,3,.68,5.51,5.51,0,0,1,2,1.67,3.33,3.33,0,0,1,.71,1.89,1.24,1.24,0,0,1-.35.86,1.11,1.11,0,0,1-.83.37,1.19,1.19,0,0,1-.82-.26,3.53,3.53,0,0,1-.6-.89,4.25,4.25,0,0,0-1.3-1.55,3.15,3.15,0,0,0-1.85-.52,3.32,3.32,0,0,0-2.78,1.33,6,6,0,0,0-1,3.77,6.87,6.87,0,0,0,.46,2.71A3.34,3.34,0,0,0,938,99a3.54,3.54,0,0,0,2,.54A3.47,3.47,0,0,0,942,99a3.63,3.63,0,0,0,1.27-1.78,3.15,3.15,0,0,1,.45-.9,1,1,0,0,1,.86-.35,1.22,1.22,0,0,1,.87.35A1.19,1.19,0,0,1,945.85,97.16Z" transform="translate(-0.11 -8)"/><path class="cls-4" d="M951.24,99.33h5a1.84,1.84,0,0,1,1.14.3,1,1,0,0,1,.39.83,1.1,1.1,0,0,1-.31.8,1.27,1.27,0,0,1-.94.32h-7a1.5,1.5,0,0,1-1.11-.39,1.29,1.29,0,0,1-.41-.94,2.41,2.41,0,0,1,.26-.91,3.11,3.11,0,0,1,.57-.89c.84-.88,1.61-1.63,2.29-2.26A13.76,13.76,0,0,1,952.53,95a8.28,8.28,0,0,0,1.3-1.12,4.26,4.26,0,0,0,.79-1.14,2.75,2.75,0,0,0,.27-1.15,2,2,0,0,0-.29-1.09,1.84,1.84,0,0,0-.79-.75,2.26,2.26,0,0,0-1.09-.27,2.22,2.22,0,0,0-2,1.1,4.69,4.69,0,0,0-.32.78,3.41,3.41,0,0,1-.5,1,1,1,0,0,1-.83.35,1.07,1.07,0,0,1-.79-.32,1.17,1.17,0,0,1-.32-.86,3.5,3.5,0,0,1,.3-1.37,4,4,0,0,1,.88-1.3,4.37,4.37,0,0,1,1.49-.94,5.7,5.7,0,0,1,2.12-.36,6.05,6.05,0,0,1,2.49.46,3.71,3.71,0,0,1,1.17.84,3.92,3.92,0,0,1,.79,1.24,3.78,3.78,0,0,1,.28,1.45,4.06,4.06,0,0,1-.59,2.15,6.64,6.64,0,0,1-1.19,1.52c-.41.37-1.09.94-2.05,1.72a14.66,14.66,0,0,0-2,1.83A4.77,4.77,0,0,0,951.24,99.33Z" transform="translate(-0.11 -8)"/><path class="cls-4" d="M969.24,89.77h-6.38v3.44h5.88a1.39,1.39,0,0,1,1,.29,1,1,0,0,1,.33.77,1,1,0,0,1-.32.78,1.36,1.36,0,0,1-1,.3h-5.88v4h6.6a1.44,1.44,0,0,1,1,.31,1.15,1.15,0,0,1,0,1.63,1.44,1.44,0,0,1-1,.31h-7.7a1.82,1.82,0,0,1-1.33-.41,1.8,1.8,0,0,1-.41-1.33V89.32a2.34,2.34,0,0,1,.18-1,1.13,1.13,0,0,1,.57-.57,2.55,2.55,0,0,1,1-.17h7.48a1.47,1.47,0,0,1,1,.3,1,1,0,0,1,.33.78,1,1,0,0,1-.33.8A1.47,1.47,0,0,1,969.24,89.77Z" transform="translate(-0.11 -8)"/></g></g></g></g></svg>