<svg id="Ebene_1" data-name="Ebene 1" xmlns="http://www.w3.org/2000/svg" viewBox="0 0 259 824"><defs><style>.cls-1{fill:#604229;}.cls-2,.cls-3,.cls-6{fill:#8c6239;}.cls-2,.cls-4,.cls-5,.cls-6,.cls-7{stroke:#42210b;}.cls-2,.cls-6,.cls-7{stroke-width:2px;}.cls-4,.cls-5{fill:none;}.cls-5{stroke-width:4px;}.cls-6,.cls-7{stroke-miterlimit:10;}.cls-7{fill:#42210b;}</style></defs><title>MenueHintergrund</title><g id="Gruppe_244" data-name="Gruppe 244"><g id="Gruppe_244-2" data-name="Gruppe 244"><path id="Pfad_173" data-name="Pfad 173" class="cls-1" d="M0,0H253V823H0Z" transform="translate(1 1)"/><path id="Pfad_174" data-name="Pfad 174" class="cls-2" d="M2,22H241V811H2Z" transform="translate(1 1)"/><g id="Gruppe_255" data-name="Gruppe 255"><g id="Rechteck_76" data-name="Rechteck 76"><rect class="cls-3" x="235" y="346" width="24" height="150" rx="9"/><rect class="cls-4" x="235.5" y="346.5" width="23" height="149" rx="8.5"/></g><g id="Gruppe_256" data-name="Gruppe 256"><g id="Gruppe_240" data-name="Gruppe 240"><path id="Pfad_175" data-name="Pfad 175" class="cls-5" d="M243.78,419.16l11.71,11" transform="translate(1 1)"/><line id="Linie_23" data-name="Linie 23" class="cls-5" x1="256.48" y1="410.29" x2="244.69" y2="422.08"/></g></g></g><rect id="Rechteck_69" data-name="Rechteck 69" class="cls-6" x="218" y="26" width="24" height="785"/><rect id="Rechteck_70" data-name="Rechteck 70" class="cls-6" x="3" y="23" width="22" height="788"/><g id="Gruppe_234" data-name="Gruppe 234"><rect id="Rechteck_71" data-name="Rechteck 71" class="cls-6" x="3" y="1" width="239" height="40"/><circle id="Ellipse_31" data-name="Ellipse 31" class="cls-7" cx="225.85" cy="22.89" r="7"/><circle id="Ellipse_32" data-name="Ellipse 32" class="cls-7" cx="18.85" cy="22.89" r="7"/></g><g id="Gruppe_235" data-name="Gruppe 235"><rect id="Rechteck_72" data-name="Rechteck 72" class="cls-6" x="2" y="785" width="239" height="26"/><circle id="Ellipse_26" data-name="Ellipse 26" class="cls-7" cx="12.85" cy="797.41" r="6"/><circle id="Ellipse_30" data-name="Ellipse 30" class="cls-7" cx="227.85" cy="797.41" r="6"/></g><g id="Gruppe_236" data-name="Gruppe 236"><rect id="Rechteck_73" data-name="Rechteck 73" class="cls-6" x="3" y="130" width="239" height="20"/><ellipse id="Ellipse_28" data-name="Ellipse 28" class="cls-7" cx="225.1" cy="141.13" rx="4.39" ry="4.02"/><ellipse id="Ellipse_29" data-name="Ellipse 29" class="cls-7" cx="20.14" cy="141.13" rx="4.39" ry="4.02"/></g><g id="Gruppe_241" data-name="Gruppe 241"><rect id="Rechteck_73-2" data-name="Rechteck 73-2" class="cls-6" x="3" y="239" width="239" height="20"/><ellipse id="Ellipse_28-2" data-name="Ellipse 28-2" class="cls-7" cx="225.1" cy="250.13" rx="4.39" ry="4.02"/><ellipse id="Ellipse_29-2" data-name="Ellipse 29-2" class="cls-7" cx="20.14" cy="250.13" rx="4.39" ry="4.02"/></g><g id="Gruppe_242" data-name="Gruppe 242"><rect id="Rechteck_73-3" data-name="Rechteck 73-3" class="cls-6" x="3" y="348" width="239" height="20"/><ellipse id="Ellipse_28-3" data-name="Ellipse 28-3" class="cls-7" cx="225.1" cy="359.13" rx="4.39" ry="4.02"/><ellipse id="Ellipse_29-3" data-name="Ellipse 29-3" class="cls-7" cx="20.14" cy="359.13" rx="4.39" ry="4.02"/></g><g id="Gruppe_243" data-name="Gruppe 243"><rect id="Rechteck_73-4" data-name="Rechteck 73-4" class="cls-6" x="3" y="458" width="239" height="20"/><ellipse id="Ellipse_28-4" data-name="Ellipse 28-4" class="cls-7" cx="225.1" cy="469.13" rx="4.39" ry="4.02"/><ellipse id="Ellipse_29-4" data-name="Ellipse 29-4" class="cls-7" cx="20.14" cy="469.13" rx="4.39" ry="4.02"/></g><g id="Gruppe_245" data-name="Gruppe 245"><rect id="Rechteck_73-5" data-name="Rechteck 73-5" class="cls-6" x="3" y="567" width="239" height="20"/><ellipse id="Ellipse_28-5" data-name="Ellipse 28-5" class="cls-7" cx="225.34" cy="578.13" rx="4.39" ry="4.02"/><ellipse id="Ellipse_29-5" data-name="Ellipse 29-5" class="cls-7" cx="20.38" cy="578.13" rx="4.39" ry="4.02"/></g><g id="Gruppe_260" data-name="Gruppe 260"><rect id="Rechteck_73-6" data-name="Rechteck 73-6" class="cls-6" x="1" y="676" width="239" height="20"/><ellipse id="Ellipse_28-6" data-name="Ellipse 28-6" class="cls-7" cx="223.34" cy="687.13" rx="4.39" ry="4.02"/><ellipse id="Ellipse_29-6" data-name="Ellipse 29-6" class="cls-7" cx="18.38" cy="687.13" rx="4.39" ry="4.02"/></g></g></g></svg>